<svg xmlns="http://www.w3.org/2000/svg" xmlns:xlink="http://www.w3.org/1999/xlink" width="500" zoomAndPan="magnify" viewBox="0 0 375 374.999991" height="500" preserveAspectRatio="xMidYMid meet" version="1.0"><defs><g/><clipPath id="bc10c5a235"><path d="M 18.011719 118.441406 L 95.261719 118.441406 L 95.261719 219.691406 L 18.011719 219.691406 Z M 18.011719 118.441406 " clip-rule="nonzero"/></clipPath><clipPath id="93c46d1900"><path d="M 28.425781 148.59375 L 84.675781 148.59375 L 84.675781 185.34375 L 28.425781 185.34375 Z M 28.425781 148.59375 " clip-rule="nonzero"/></clipPath></defs><rect x="-37.5" width="450" fill="#ffffff" y="-37.499999" height="449.999989" fill-opacity="1"/><rect x="-37.5" width="450" fill="#ffffff" y="-37.499999" height="449.999989" fill-opacity="1"/><g clip-path="url(#bc10c5a235)"><path fill="#004aad" d="M 94.914062 144.929688 C 94.867188 141.578125 94.738281 138.8125 94.609375 136.917969 C 94.585938 136.441406 94.171875 136.050781 93.695312 136.050781 C 91.191406 135.984375 88.90625 134.984375 87.164062 133.394531 C 85.421875 131.78125 84.226562 129.585938 83.878906 127.101562 L 83.855469 127.015625 C 83.746094 126.558594 83.679688 126.058594 83.660156 125.535156 C 83.617188 125.035156 83.203125 124.644531 82.679688 124.664062 C 82.222656 124.6875 81.746094 124.710938 81.308594 124.710938 C 80.285156 124.710938 78.804688 124.359375 77.066406 123.773438 C 74.453125 122.925781 71.253906 121.597656 67.75 120.488281 C 64.246094 119.355469 60.4375 118.441406 56.5625 118.441406 C 51.402344 118.441406 46.332031 120.050781 41.980469 121.617188 C 39.800781 122.402344 37.800781 123.1875 36.058594 123.75 C 34.316406 124.316406 32.835938 124.6875 31.8125 124.6875 C 31.355469 124.6875 30.898438 124.664062 30.441406 124.644531 C 29.941406 124.621094 29.507812 125.015625 29.464844 125.515625 C 29.417969 126.035156 29.375 126.539062 29.265625 126.996094 L 29.246094 127.082031 C 28.898438 129.5625 27.699219 131.78125 25.960938 133.371094 C 24.21875 134.984375 21.933594 135.960938 19.429688 136.027344 C 18.949219 136.050781 18.558594 136.417969 18.515625 136.898438 C 18.386719 138.792969 18.253906 141.554688 18.210938 144.90625 C 18.144531 149.414062 18.035156 154.003906 18.035156 158.578125 C 18.035156 168.546875 18.539062 178.40625 21.234375 187.109375 C 22.585938 191.464844 24.480469 195.511719 27.15625 199.125 C 29.8125 202.738281 33.25 205.894531 37.625 208.417969 C 44.765625 212.554688 49.378906 215.363281 52.1875 217.148438 C 53.601562 218.039062 54.558594 218.671875 55.167969 219.085938 C 55.472656 219.28125 55.691406 219.433594 55.820312 219.519531 C 55.886719 219.5625 55.929688 219.605469 55.972656 219.628906 L 56.015625 219.652344 C 56.34375 219.890625 56.800781 219.890625 57.128906 219.652344 C 57.34375 219.5 61.65625 216.429688 75.496094 208.417969 C 79.871094 205.894531 83.3125 202.738281 85.96875 199.125 C 89.972656 193.707031 92.234375 187.285156 93.519531 180.363281 C 94.804688 173.441406 95.085938 166.019531 95.085938 158.554688 C 95.085938 154.003906 94.976562 149.414062 94.914062 144.929688 Z M 90.101562 186.546875 C 88.796875 190.746094 86.988281 194.597656 84.464844 198.015625 C 81.941406 201.433594 78.71875 204.394531 74.5625 206.785156 C 63.046875 213.449219 58.085938 216.710938 56.5625 217.734375 C 55.039062 216.691406 50.074219 213.425781 38.5625 206.785156 C 34.402344 204.371094 31.183594 201.410156 28.65625 198.015625 C 24.871094 192.902344 22.695312 186.761719 21.453125 180.039062 C 20.214844 173.3125 19.929688 166 19.929688 158.578125 C 19.929688 154.050781 20.039062 149.457031 20.105469 144.949219 C 20.148438 142.078125 20.257812 139.660156 20.367188 137.855469 C 22.976562 137.59375 25.351562 136.460938 27.222656 134.765625 C 29.265625 132.871094 30.683594 130.304688 31.097656 127.363281 C 31.160156 127.101562 31.203125 126.820312 31.25 126.539062 C 31.445312 126.539062 31.617188 126.539062 31.8125 126.539062 C 33.230469 126.539062 34.839844 126.101562 36.644531 125.515625 C 39.367188 124.621094 42.542969 123.316406 45.941406 122.226562 C 49.355469 121.140625 52.992188 120.289062 56.5625 120.289062 C 61.328125 120.289062 66.203125 121.792969 70.511719 123.359375 C 72.667969 124.144531 74.671875 124.90625 76.5 125.515625 C 78.304688 126.101562 79.914062 126.539062 81.332031 126.539062 C 81.527344 126.539062 81.722656 126.539062 81.898438 126.539062 C 81.941406 126.820312 81.984375 127.082031 82.050781 127.363281 C 82.460938 130.28125 83.878906 132.871094 85.921875 134.765625 C 87.773438 136.460938 90.167969 137.59375 92.800781 137.855469 C 92.910156 139.660156 93.019531 142.078125 93.0625 144.949219 C 93.128906 149.457031 93.238281 154.027344 93.238281 158.578125 C 93.214844 168.457031 92.691406 178.164062 90.101562 186.546875 Z M 90.101562 186.546875 " fill-opacity="1" fill-rule="nonzero"/></g><g clip-path="url(#93c46d1900)"><path fill="#004aad" d="M 81.472656 148.691406 L 31.601562 148.691406 C 31.175781 148.691406 30.769531 148.773438 30.378906 148.933594 C 29.988281 149.097656 29.640625 149.328125 29.339844 149.628906 C 29.042969 149.925781 28.8125 150.273438 28.648438 150.664062 C 28.484375 151.054688 28.40625 151.464844 28.402344 151.886719 L 28.402344 182.285156 C 28.40625 182.707031 28.484375 183.117188 28.648438 183.507812 C 28.8125 183.898438 29.042969 184.246094 29.339844 184.542969 C 29.640625 184.84375 29.988281 185.074219 30.378906 185.238281 C 30.769531 185.398438 31.175781 185.480469 31.601562 185.480469 L 81.472656 185.480469 C 81.898438 185.480469 82.304688 185.398438 82.695312 185.238281 C 83.089844 185.074219 83.433594 184.84375 83.734375 184.542969 C 84.035156 184.246094 84.265625 183.898438 84.425781 183.507812 C 84.589844 183.117188 84.671875 182.707031 84.671875 182.285156 L 84.671875 151.886719 C 84.671875 151.464844 84.589844 151.054688 84.425781 150.664062 C 84.265625 150.273438 84.035156 149.925781 83.734375 149.628906 C 83.433594 149.328125 83.089844 149.097656 82.695312 148.933594 C 82.304688 148.773438 81.898438 148.691406 81.472656 148.691406 Z M 65.378906 167.085938 L 82.9375 151.433594 C 82.988281 151.582031 83.011719 151.730469 83.015625 151.886719 L 83.015625 182.285156 C 83.011719 182.441406 82.988281 182.589844 82.9375 182.738281 Z M 81.472656 150.347656 C 81.53125 150.347656 81.589844 150.355469 81.648438 150.363281 L 57.558594 171.835938 C 57.417969 171.964844 57.257812 172.058594 57.082031 172.125 C 56.90625 172.195312 56.722656 172.226562 56.535156 172.226562 C 56.34375 172.226562 56.160156 172.195312 55.984375 172.125 C 55.808594 172.058594 55.652344 171.964844 55.507812 171.835938 L 31.425781 150.363281 C 31.484375 150.355469 31.542969 150.347656 31.601562 150.347656 Z M 30.136719 182.738281 C 30.089844 182.589844 30.0625 182.441406 30.0625 182.285156 L 30.0625 151.886719 C 30.0625 151.730469 30.089844 151.582031 30.136719 151.433594 L 47.695312 167.085938 Z M 31.601562 183.828125 C 31.542969 183.824219 31.484375 183.816406 31.425781 183.808594 L 48.9375 168.195312 L 54.414062 173.074219 C 54.703125 173.335938 55.035156 173.535156 55.398438 173.675781 C 55.765625 173.8125 56.144531 173.882812 56.539062 173.882812 C 56.929688 173.882812 57.308594 173.8125 57.675781 173.675781 C 58.042969 173.535156 58.371094 173.335938 58.664062 173.074219 L 64.136719 168.195312 L 81.648438 183.808594 C 81.589844 183.816406 81.53125 183.824219 81.472656 183.824219 Z M 31.601562 183.828125 " fill-opacity="1" fill-rule="nonzero"/></g><g fill="#000000" fill-opacity="1"><g transform="translate(103.365452, 184.421369)"><g><path d="M 2.71875 0 L 2.71875 -31.234375 L 23.75 -31.234375 L 23.75 -25.78125 L 9.3125 -25.78125 L 9.3125 -18.34375 L 22.671875 -18.34375 L 22.671875 -12.90625 L 9.3125 -12.90625 L 9.3125 -5.4375 L 23.8125 -5.4375 L 23.8125 0 Z M 2.71875 0 "/></g></g></g><g fill="#000000" fill-opacity="1"><g transform="translate(129.661802, 184.421369)"><g><path d="M 2.59375 0 L 2.59375 -23.421875 L 8.78125 -23.421875 L 8.78125 -19.28125 L 9.0625 -19.28125 C 9.539062 -20.664062 10.351562 -21.75 11.5 -22.53125 C 12.644531 -23.320312 14.003906 -23.71875 15.578125 -23.71875 C 17.179688 -23.71875 18.546875 -23.316406 19.671875 -22.515625 C 20.804688 -21.722656 21.5625 -20.644531 21.9375 -19.28125 L 22.1875 -19.28125 C 22.664062 -20.625 23.53125 -21.695312 24.78125 -22.5 C 26.039062 -23.3125 27.53125 -23.71875 29.25 -23.71875 C 31.425781 -23.71875 33.195312 -23.023438 34.5625 -21.640625 C 35.9375 -20.253906 36.625 -18.289062 36.625 -15.75 L 36.625 0 L 30.140625 0 L 30.140625 -14.46875 C 30.140625 -15.769531 29.796875 -16.742188 29.109375 -17.390625 C 28.421875 -18.046875 27.554688 -18.375 26.515625 -18.375 C 25.335938 -18.375 24.414062 -17.992188 23.75 -17.234375 C 23.09375 -16.484375 22.765625 -15.503906 22.765625 -14.296875 L 22.765625 0 L 16.46875 0 L 16.46875 -14.609375 C 16.46875 -15.753906 16.140625 -16.664062 15.484375 -17.34375 C 14.828125 -18.03125 13.96875 -18.375 12.90625 -18.375 C 11.820312 -18.375 10.914062 -17.976562 10.1875 -17.1875 C 9.457031 -16.40625 9.09375 -15.363281 9.09375 -14.0625 L 9.09375 0 Z M 2.59375 0 "/></g></g></g><g fill="#000000" fill-opacity="1"><g transform="translate(168.809067, 184.421369)"><g><path d="M 9.265625 0.4375 C 7.035156 0.4375 5.179688 -0.144531 3.703125 -1.3125 C 2.234375 -2.476562 1.5 -4.222656 1.5 -6.546875 C 1.5 -8.285156 1.910156 -9.65625 2.734375 -10.65625 C 3.554688 -11.65625 4.632812 -12.382812 5.96875 -12.84375 C 7.300781 -13.3125 8.742188 -13.613281 10.296875 -13.75 C 12.328125 -13.957031 13.78125 -14.171875 14.65625 -14.390625 C 15.53125 -14.617188 15.96875 -15.109375 15.96875 -15.859375 L 15.96875 -15.953125 C 15.96875 -16.910156 15.664062 -17.65625 15.0625 -18.1875 C 14.457031 -18.71875 13.597656 -18.984375 12.484375 -18.984375 C 11.316406 -18.984375 10.382812 -18.726562 9.6875 -18.21875 C 9 -17.707031 8.546875 -17.0625 8.328125 -16.28125 L 2.3125 -16.765625 C 2.757812 -18.898438 3.867188 -20.59375 5.640625 -21.84375 C 7.421875 -23.09375 9.710938 -23.71875 12.515625 -23.71875 C 14.253906 -23.71875 15.878906 -23.441406 17.390625 -22.890625 C 18.910156 -22.347656 20.132812 -21.492188 21.0625 -20.328125 C 21.988281 -19.171875 22.453125 -17.660156 22.453125 -15.796875 L 22.453125 0 L 16.296875 0 L 16.296875 -3.25 L 16.109375 -3.25 C 15.546875 -2.15625 14.695312 -1.265625 13.5625 -0.578125 C 12.425781 0.0976562 10.992188 0.4375 9.265625 0.4375 Z M 11.125 -4.046875 C 12.550781 -4.046875 13.722656 -4.457031 14.640625 -5.28125 C 15.554688 -6.113281 16.015625 -7.144531 16.015625 -8.375 L 16.015625 -10.859375 C 15.753906 -10.679688 15.359375 -10.523438 14.828125 -10.390625 C 14.296875 -10.265625 13.726562 -10.148438 13.125 -10.046875 C 12.519531 -9.953125 11.976562 -9.867188 11.5 -9.796875 C 10.351562 -9.640625 9.429688 -9.320312 8.734375 -8.84375 C 8.046875 -8.363281 7.703125 -7.664062 7.703125 -6.75 C 7.703125 -5.851562 8.023438 -5.175781 8.671875 -4.71875 C 9.316406 -4.269531 10.132812 -4.046875 11.125 -4.046875 Z M 11.125 -4.046875 "/></g></g></g><g fill="#000000" fill-opacity="1"><g transform="translate(193.718195, 184.421369)"><g><path d="M 2.59375 0 L 2.59375 -23.421875 L 9.09375 -23.421875 L 9.09375 0 Z M 5.859375 -26.4375 C 4.898438 -26.4375 4.078125 -26.757812 3.390625 -27.40625 C 2.703125 -28.050781 2.359375 -28.828125 2.359375 -29.734375 C 2.359375 -30.640625 2.703125 -31.410156 3.390625 -32.046875 C 4.078125 -32.691406 4.898438 -33.015625 5.859375 -33.015625 C 6.828125 -33.015625 7.65625 -32.691406 8.34375 -32.046875 C 9.039062 -31.410156 9.390625 -30.640625 9.390625 -29.734375 C 9.390625 -28.828125 9.039062 -28.050781 8.34375 -27.40625 C 7.65625 -26.757812 6.828125 -26.4375 5.859375 -26.4375 Z M 5.859375 -26.4375 "/></g></g></g><g fill="#000000" fill-opacity="1"><g transform="translate(205.395298, 184.421369)"><g><path d="M 9.09375 -31.234375 L 9.09375 0 L 2.59375 0 L 2.59375 -31.234375 Z M 9.09375 -31.234375 "/></g></g></g><g fill="#000000" fill-opacity="1"><g transform="translate(217.072402, 184.421369)"><g/></g></g><g fill="#000000" fill-opacity="1"><g transform="translate(227.026908, 184.421369)"><g><path d="M 23.421875 -21.140625 C 23.003906 -22.597656 22.234375 -23.738281 21.109375 -24.5625 C 19.984375 -25.394531 18.570312 -25.8125 16.875 -25.8125 C 14.488281 -25.8125 12.554688 -24.925781 11.078125 -23.15625 C 9.597656 -21.394531 8.859375 -18.890625 8.859375 -15.640625 C 8.859375 -12.378906 9.582031 -9.859375 11.03125 -8.078125 C 12.488281 -6.296875 14.457031 -5.40625 16.9375 -5.40625 C 19.132812 -5.40625 20.859375 -5.976562 22.109375 -7.125 C 23.367188 -8.269531 24.019531 -9.804688 24.0625 -11.734375 L 17.359375 -11.734375 L 17.359375 -16.71875 L 30.421875 -16.71875 L 30.421875 -12.78125 C 30.421875 -10.039062 29.835938 -7.679688 28.671875 -5.703125 C 27.515625 -3.734375 25.921875 -2.21875 23.890625 -1.15625 C 21.867188 -0.101562 19.539062 0.421875 16.90625 0.421875 C 13.976562 0.421875 11.40625 -0.222656 9.1875 -1.515625 C 6.976562 -2.816406 5.253906 -4.660156 4.015625 -7.046875 C 2.785156 -9.441406 2.171875 -12.285156 2.171875 -15.578125 C 2.171875 -18.953125 2.8125 -21.835938 4.09375 -24.234375 C 5.382812 -26.640625 7.132812 -28.476562 9.34375 -29.75 C 11.550781 -31.019531 14.023438 -31.65625 16.765625 -31.65625 C 19.128906 -31.65625 21.265625 -31.207031 23.171875 -30.3125 C 25.085938 -29.414062 26.65625 -28.175781 27.875 -26.59375 C 29.09375 -25.019531 29.84375 -23.203125 30.125 -21.140625 Z M 23.421875 -21.140625 "/></g></g></g><g fill="#000000" fill-opacity="1"><g transform="translate(259.680118, 184.421369)"><g><path d="M 17.609375 -9.96875 L 17.609375 -23.421875 L 24.109375 -23.421875 L 24.109375 0 L 17.875 0 L 17.875 -4.25 L 17.625 -4.25 C 17.09375 -2.882812 16.210938 -1.78125 14.984375 -0.9375 C 13.765625 -0.101562 12.273438 0.3125 10.515625 0.3125 C 8.160156 0.3125 6.253906 -0.472656 4.796875 -2.046875 C 3.335938 -3.617188 2.601562 -5.773438 2.59375 -8.515625 L 2.59375 -23.421875 L 9.09375 -23.421875 L 9.09375 -9.671875 C 9.101562 -8.285156 9.472656 -7.191406 10.203125 -6.390625 C 10.929688 -5.585938 11.910156 -5.1875 13.140625 -5.1875 C 14.304688 -5.1875 15.34375 -5.59375 16.25 -6.40625 C 17.164062 -7.21875 17.617188 -8.40625 17.609375 -9.96875 Z M 17.609375 -9.96875 "/></g></g></g><g fill="#000000" fill-opacity="1"><g transform="translate(286.372825, 184.421369)"><g><path d="M 9.265625 0.4375 C 7.035156 0.4375 5.179688 -0.144531 3.703125 -1.3125 C 2.234375 -2.476562 1.5 -4.222656 1.5 -6.546875 C 1.5 -8.285156 1.910156 -9.65625 2.734375 -10.65625 C 3.554688 -11.65625 4.632812 -12.382812 5.96875 -12.84375 C 7.300781 -13.3125 8.742188 -13.613281 10.296875 -13.75 C 12.328125 -13.957031 13.78125 -14.171875 14.65625 -14.390625 C 15.53125 -14.617188 15.96875 -15.109375 15.96875 -15.859375 L 15.96875 -15.953125 C 15.96875 -16.910156 15.664062 -17.65625 15.0625 -18.1875 C 14.457031 -18.71875 13.597656 -18.984375 12.484375 -18.984375 C 11.316406 -18.984375 10.382812 -18.726562 9.6875 -18.21875 C 9 -17.707031 8.546875 -17.0625 8.328125 -16.28125 L 2.3125 -16.765625 C 2.757812 -18.898438 3.867188 -20.59375 5.640625 -21.84375 C 7.421875 -23.09375 9.710938 -23.71875 12.515625 -23.71875 C 14.253906 -23.71875 15.878906 -23.441406 17.390625 -22.890625 C 18.910156 -22.347656 20.132812 -21.492188 21.0625 -20.328125 C 21.988281 -19.171875 22.453125 -17.660156 22.453125 -15.796875 L 22.453125 0 L 16.296875 0 L 16.296875 -3.25 L 16.109375 -3.25 C 15.546875 -2.15625 14.695312 -1.265625 13.5625 -0.578125 C 12.425781 0.0976562 10.992188 0.4375 9.265625 0.4375 Z M 11.125 -4.046875 C 12.550781 -4.046875 13.722656 -4.457031 14.640625 -5.28125 C 15.554688 -6.113281 16.015625 -7.144531 16.015625 -8.375 L 16.015625 -10.859375 C 15.753906 -10.679688 15.359375 -10.523438 14.828125 -10.390625 C 14.296875 -10.265625 13.726562 -10.148438 13.125 -10.046875 C 12.519531 -9.953125 11.976562 -9.867188 11.5 -9.796875 C 10.351562 -9.640625 9.429688 -9.320312 8.734375 -8.84375 C 8.046875 -8.363281 7.703125 -7.664062 7.703125 -6.75 C 7.703125 -5.851562 8.023438 -5.175781 8.671875 -4.71875 C 9.316406 -4.269531 10.132812 -4.046875 11.125 -4.046875 Z M 11.125 -4.046875 "/></g></g></g><g fill="#000000" fill-opacity="1"><g transform="translate(311.281953, 184.421369)"><g><path d="M 2.59375 0 L 2.59375 -23.421875 L 8.890625 -23.421875 L 8.890625 -19.328125 L 9.140625 -19.328125 C 9.566406 -20.785156 10.28125 -21.882812 11.28125 -22.625 C 12.28125 -23.375 13.441406 -23.75 14.765625 -23.75 C 15.390625 -23.75 15.972656 -23.671875 16.515625 -23.515625 C 17.054688 -23.367188 17.539062 -23.164062 17.96875 -22.90625 L 16.015625 -17.53125 C 15.703125 -17.6875 15.363281 -17.816406 15 -17.921875 C 14.644531 -18.023438 14.242188 -18.078125 13.796875 -18.078125 C 12.484375 -18.078125 11.375 -17.628906 10.46875 -16.734375 C 9.5625 -15.847656 9.101562 -14.6875 9.09375 -13.25 L 9.09375 0 Z M 2.59375 0 "/></g></g></g><g fill="#000000" fill-opacity="1"><g transform="translate(329.681781, 184.421369)"><g><path d="M 11.21875 0.375 C 9.4375 0.375 7.828125 -0.0820312 6.390625 -1 C 4.960938 -1.914062 3.828125 -3.269531 2.984375 -5.0625 C 2.140625 -6.863281 1.71875 -9.066406 1.71875 -11.671875 C 1.71875 -14.359375 2.148438 -16.59375 3.015625 -18.375 C 3.890625 -20.164062 5.046875 -21.503906 6.484375 -22.390625 C 7.921875 -23.273438 9.492188 -23.71875 11.203125 -23.71875 C 12.515625 -23.71875 13.609375 -23.5 14.484375 -23.0625 C 15.367188 -22.625 16.082031 -22.078125 16.625 -21.421875 C 17.164062 -20.773438 17.582031 -20.128906 17.875 -19.484375 L 18.0625 -19.484375 L 18.0625 -31.234375 L 24.546875 -31.234375 L 24.546875 0 L 18.140625 0 L 18.140625 -3.75 L 17.875 -3.75 C 17.570312 -3.101562 17.140625 -2.460938 16.578125 -1.828125 C 16.023438 -1.191406 15.304688 -0.664062 14.421875 -0.25 C 13.546875 0.164062 12.476562 0.375 11.21875 0.375 Z M 13.28125 -4.78125 C 14.84375 -4.78125 16.050781 -5.410156 16.90625 -6.671875 C 17.769531 -7.941406 18.203125 -9.617188 18.203125 -11.703125 C 18.203125 -13.796875 17.773438 -15.460938 16.921875 -16.703125 C 16.066406 -17.941406 14.851562 -18.5625 13.28125 -18.5625 C 11.675781 -18.5625 10.453125 -17.925781 9.609375 -16.65625 C 8.773438 -15.394531 8.359375 -13.742188 8.359375 -11.703125 C 8.359375 -9.660156 8.78125 -7.992188 9.625 -6.703125 C 10.46875 -5.421875 11.6875 -4.78125 13.28125 -4.78125 Z M 13.28125 -4.78125 "/></g></g></g></svg>