<svg xmlns="http://www.w3.org/2000/svg" xmlns:xlink="http://www.w3.org/1999/xlink" width="500" zoomAndPan="magnify" viewBox="0 0 375 374.999991" height="500" preserveAspectRatio="xMidYMid meet" version="1.0"><defs><g/><clipPath id="e828831c82"><path d="M 108.304688 59.230469 L 248.554688 59.230469 L 248.554688 243.730469 L 108.304688 243.730469 Z M 108.304688 59.230469 " clip-rule="nonzero"/></clipPath><clipPath id="5f6bc9ac83"><path d="M 127.226562 112.515625 L 229.226562 112.515625 L 229.226562 180 L 127.226562 180 Z M 127.226562 112.515625 " clip-rule="nonzero"/></clipPath></defs><g clip-path="url(#e828831c82)"><path fill="#004aad" d="M 248.050781 107.363281 C 247.96875 101.273438 247.734375 96.25 247.496094 92.808594 C 247.457031 91.941406 246.703125 91.226562 245.835938 91.226562 C 241.285156 91.109375 237.132812 89.289062 233.96875 86.402344 C 230.804688 83.476562 228.628906 79.480469 227.996094 74.972656 L 227.957031 74.8125 C 227.757812 73.984375 227.640625 73.074219 227.601562 72.125 C 227.523438 71.214844 226.769531 70.503906 225.820312 70.542969 C 224.992188 70.582031 224.121094 70.621094 223.328125 70.621094 C 221.472656 70.621094 218.78125 69.988281 215.617188 68.921875 C 210.871094 67.378906 205.058594 64.964844 198.691406 62.949219 C 192.320312 60.890625 185.402344 59.230469 178.359375 59.230469 C 168.988281 59.230469 159.769531 62.15625 151.859375 65.003906 C 147.90625 66.429688 144.265625 67.851562 141.101562 68.882812 C 137.9375 69.910156 135.25 70.582031 133.390625 70.582031 C 132.558594 70.582031 131.730469 70.542969 130.898438 70.503906 C 129.988281 70.464844 129.199219 71.175781 129.121094 72.085938 C 129.039062 73.035156 128.960938 73.945312 128.761719 74.773438 L 128.722656 74.933594 C 128.089844 79.441406 125.914062 83.476562 122.75 86.363281 C 119.585938 89.289062 115.433594 91.070312 110.886719 91.1875 C 110.015625 91.226562 109.304688 91.898438 109.226562 92.769531 C 108.988281 96.210938 108.75 101.234375 108.671875 107.324219 C 108.550781 115.511719 108.355469 123.859375 108.355469 132.164062 C 108.355469 150.277344 109.265625 168.195312 114.167969 184.015625 C 116.621094 191.925781 120.0625 199.28125 124.925781 205.847656 C 129.753906 212.414062 136 218.148438 143.949219 222.734375 C 156.921875 230.25 165.308594 235.351562 170.410156 238.59375 C 172.980469 240.21875 174.722656 241.363281 175.828125 242.117188 C 176.382812 242.472656 176.777344 242.75 177.015625 242.90625 C 177.132812 242.984375 177.214844 243.066406 177.292969 243.105469 L 177.371094 243.144531 C 177.964844 243.578125 178.796875 243.578125 179.390625 243.144531 C 179.785156 242.867188 187.617188 237.289062 212.769531 222.734375 C 220.71875 218.148438 226.96875 212.414062 231.792969 205.847656 C 239.070312 196 243.183594 184.332031 245.519531 171.753906 C 247.851562 159.175781 248.367188 145.691406 248.367188 132.125 C 248.367188 123.859375 248.167969 115.511719 248.050781 107.363281 Z M 239.308594 182.988281 C 236.9375 190.621094 233.652344 197.621094 229.066406 203.828125 C 224.476562 210.039062 218.625 215.417969 211.070312 219.769531 C 190.148438 231.871094 181.128906 237.804688 178.359375 239.664062 C 175.59375 237.765625 166.574219 231.832031 145.652344 219.769531 C 138.097656 215.378906 132.242188 210 127.65625 203.828125 C 120.773438 194.535156 116.820312 183.382812 114.566406 171.160156 C 112.308594 158.9375 111.796875 145.648438 111.796875 132.164062 C 111.796875 123.9375 111.992188 115.589844 112.113281 107.40625 C 112.191406 102.183594 112.390625 97.792969 112.585938 94.511719 C 117.332031 94.035156 121.644531 91.980469 125.046875 88.894531 C 128.761719 85.453125 131.335938 80.785156 132.085938 75.445312 C 132.203125 74.972656 132.285156 74.457031 132.363281 73.945312 C 132.71875 73.945312 133.035156 73.945312 133.390625 73.945312 C 135.960938 73.945312 138.886719 73.152344 142.171875 72.085938 C 147.113281 70.464844 152.890625 68.089844 159.058594 66.113281 C 165.269531 64.136719 171.875 62.59375 178.359375 62.59375 C 187.023438 62.59375 195.882812 65.320312 203.710938 68.167969 C 207.628906 69.59375 211.265625 70.976562 214.589844 72.085938 C 217.871094 73.152344 220.796875 73.945312 223.371094 73.945312 C 223.726562 73.945312 224.082031 73.945312 224.398438 73.945312 C 224.476562 74.457031 224.554688 74.933594 224.675781 75.445312 C 225.425781 80.746094 227.996094 85.453125 231.714844 88.894531 C 235.078125 91.980469 239.425781 94.035156 244.214844 94.511719 C 244.410156 97.792969 244.609375 102.183594 244.6875 107.40625 C 244.804688 115.589844 245.003906 123.898438 245.003906 132.164062 C 244.964844 150.121094 244.015625 167.757812 239.308594 182.988281 Z M 239.308594 182.988281 " fill-opacity="1" fill-rule="nonzero"/></g><g clip-path="url(#5f6bc9ac83)"><path fill="#004aad" d="M 223.636719 112.6875 L 133 112.6875 C 132.617188 112.6875 132.238281 112.726562 131.867188 112.800781 C 131.492188 112.875 131.128906 112.988281 130.777344 113.132812 C 130.421875 113.277344 130.089844 113.457031 129.773438 113.667969 C 129.457031 113.882812 129.160156 114.121094 128.890625 114.390625 C 128.621094 114.660156 128.382812 114.953125 128.167969 115.273438 C 127.957031 115.589844 127.777344 115.921875 127.632812 116.277344 C 127.488281 116.628906 127.375 116.992188 127.300781 117.363281 C 127.226562 117.738281 127.1875 118.117188 127.1875 118.496094 L 127.1875 173.742188 C 127.1875 174.125 127.226562 174.5 127.300781 174.875 C 127.375 175.25 127.488281 175.613281 127.632812 175.964844 C 127.777344 176.316406 127.957031 176.652344 128.167969 176.96875 C 128.382812 177.285156 128.621094 177.578125 128.890625 177.847656 C 129.160156 178.117188 129.457031 178.359375 129.773438 178.570312 C 130.089844 178.78125 130.421875 178.960938 130.777344 179.109375 C 131.128906 179.253906 131.492188 179.363281 131.867188 179.4375 C 132.238281 179.515625 132.617188 179.550781 133 179.550781 L 223.636719 179.550781 C 224.015625 179.550781 224.394531 179.515625 224.769531 179.4375 C 225.144531 179.363281 225.507812 179.253906 225.859375 179.109375 C 226.210938 178.960938 226.546875 178.78125 226.863281 178.570312 C 227.179688 178.359375 227.472656 178.117188 227.742188 177.847656 C 228.011719 177.578125 228.253906 177.285156 228.464844 176.96875 C 228.675781 176.652344 228.855469 176.316406 229.003906 175.964844 C 229.148438 175.613281 229.257812 175.25 229.332031 174.875 C 229.410156 174.5 229.445312 174.125 229.445312 173.742188 L 229.445312 118.496094 C 229.445312 118.117188 229.410156 117.738281 229.332031 117.363281 C 229.257812 116.992188 229.148438 116.628906 229.003906 116.277344 C 228.855469 115.921875 228.675781 115.589844 228.464844 115.273438 C 228.253906 114.953125 228.011719 114.660156 227.742188 114.390625 C 227.472656 114.121094 227.179688 113.882812 226.863281 113.667969 C 226.546875 113.457031 226.210938 113.277344 225.859375 113.132812 C 225.507812 112.984375 225.144531 112.875 224.769531 112.800781 C 224.394531 112.726562 224.015625 112.6875 223.636719 112.6875 Z M 194.386719 146.121094 L 226.300781 117.675781 C 226.386719 117.941406 226.433594 118.214844 226.4375 118.496094 L 226.4375 173.742188 C 226.433594 174.023438 226.386719 174.296875 226.300781 174.566406 Z M 223.632812 115.699219 C 223.738281 115.703125 223.84375 115.714844 223.949219 115.730469 L 180.171875 154.753906 C 179.914062 154.984375 179.625 155.160156 179.304688 155.28125 C 178.984375 155.402344 178.652344 155.464844 178.308594 155.464844 C 177.964844 155.464844 177.636719 155.402344 177.3125 155.28125 C 176.992188 155.160156 176.707031 154.984375 176.449219 154.753906 L 132.679688 115.730469 C 132.785156 115.714844 132.890625 115.703125 133 115.699219 Z M 130.335938 174.566406 C 130.25 174.296875 130.203125 174.023438 130.199219 173.742188 L 130.199219 118.496094 C 130.203125 118.214844 130.25 117.941406 130.335938 117.675781 L 162.246094 146.121094 Z M 133 176.542969 C 132.890625 176.539062 132.785156 176.527344 132.679688 176.511719 L 164.503906 148.140625 L 174.453125 157.003906 C 174.71875 157.238281 175 157.445312 175.304688 157.628906 C 175.605469 157.8125 175.921875 157.96875 176.25 158.09375 C 176.582031 158.21875 176.917969 158.316406 177.265625 158.378906 C 177.613281 158.441406 177.964844 158.476562 178.316406 158.476562 C 178.671875 158.476562 179.019531 158.441406 179.367188 158.378906 C 179.714844 158.316406 180.054688 158.21875 180.382812 158.09375 C 180.714844 157.96875 181.03125 157.8125 181.332031 157.628906 C 181.632812 157.445312 181.917969 157.238281 182.179688 157.003906 L 192.128906 148.136719 L 223.953125 176.507812 C 223.847656 176.527344 223.742188 176.535156 223.632812 176.542969 Z M 133 176.542969 " fill-opacity="1" fill-rule="nonzero"/></g><g fill="#000000" fill-opacity="1"><g transform="translate(63.77264, 291.312158)"><g><path d="M 2.640625 0 L 2.640625 -30.46875 L 23.171875 -30.46875 L 23.171875 -25.15625 L 9.09375 -25.15625 L 9.09375 -17.890625 L 22.125 -17.890625 L 22.125 -12.578125 L 9.09375 -12.578125 L 9.09375 -5.3125 L 23.234375 -5.3125 L 23.234375 0 Z M 2.640625 0 "/></g></g></g><g fill="#000000" fill-opacity="1"><g transform="translate(89.430903, 291.312158)"><g><path d="M 2.53125 0 L 2.53125 -22.84375 L 8.5625 -22.84375 L 8.5625 -18.8125 L 8.84375 -18.8125 C 9.3125 -20.164062 10.101562 -21.222656 11.21875 -21.984375 C 12.332031 -22.753906 13.660156 -23.140625 15.203125 -23.140625 C 16.765625 -23.140625 18.097656 -22.75 19.203125 -21.96875 C 20.304688 -21.195312 21.039062 -20.144531 21.40625 -18.8125 L 21.640625 -18.8125 C 22.109375 -20.125 22.953125 -21.171875 24.171875 -21.953125 C 25.398438 -22.742188 26.851562 -23.140625 28.53125 -23.140625 C 30.664062 -23.140625 32.398438 -22.460938 33.734375 -21.109375 C 35.066406 -19.753906 35.734375 -17.835938 35.734375 -15.359375 L 35.734375 0 L 29.40625 0 L 29.40625 -14.125 C 29.40625 -15.382812 29.066406 -16.332031 28.390625 -16.96875 C 27.722656 -17.601562 26.882812 -17.921875 25.875 -17.921875 C 24.71875 -17.921875 23.816406 -17.550781 23.171875 -16.8125 C 22.523438 -16.082031 22.203125 -15.128906 22.203125 -13.953125 L 22.203125 0 L 16.0625 0 L 16.0625 -14.25 C 16.0625 -15.375 15.738281 -16.265625 15.09375 -16.921875 C 14.457031 -17.585938 13.617188 -17.921875 12.578125 -17.921875 C 11.535156 -17.921875 10.65625 -17.535156 9.9375 -16.765625 C 9.21875 -16.003906 8.859375 -14.988281 8.859375 -13.71875 L 8.859375 0 Z M 2.53125 0 "/></g></g></g><g fill="#000000" fill-opacity="1"><g transform="translate(127.62825, 291.312158)"><g><path d="M 9.046875 0.4375 C 6.859375 0.4375 5.046875 -0.128906 3.609375 -1.265625 C 2.171875 -2.410156 1.453125 -4.113281 1.453125 -6.375 C 1.453125 -8.082031 1.851562 -9.421875 2.65625 -10.390625 C 3.46875 -11.367188 4.523438 -12.082031 5.828125 -12.53125 C 7.128906 -12.976562 8.535156 -13.273438 10.046875 -13.421875 C 12.023438 -13.617188 13.441406 -13.828125 14.296875 -14.046875 C 15.148438 -14.265625 15.578125 -14.738281 15.578125 -15.46875 L 15.578125 -15.5625 C 15.578125 -16.5 15.28125 -17.222656 14.6875 -17.734375 C 14.101562 -18.253906 13.269531 -18.515625 12.1875 -18.515625 C 11.039062 -18.515625 10.128906 -18.265625 9.453125 -17.765625 C 8.785156 -17.273438 8.34375 -16.648438 8.125 -15.890625 L 2.265625 -16.359375 C 2.703125 -18.441406 3.785156 -20.09375 5.515625 -21.3125 C 7.242188 -22.53125 9.476562 -23.140625 12.21875 -23.140625 C 13.90625 -23.140625 15.488281 -22.875 16.96875 -22.34375 C 18.445312 -21.8125 19.640625 -20.976562 20.546875 -19.84375 C 21.453125 -18.707031 21.90625 -17.226562 21.90625 -15.40625 L 21.90625 0 L 15.90625 0 L 15.90625 -3.171875 L 15.71875 -3.171875 C 15.164062 -2.109375 14.335938 -1.238281 13.234375 -0.5625 C 12.128906 0.101562 10.734375 0.4375 9.046875 0.4375 Z M 10.859375 -3.9375 C 12.242188 -3.9375 13.382812 -4.335938 14.28125 -5.140625 C 15.175781 -5.953125 15.625 -6.960938 15.625 -8.171875 L 15.625 -10.59375 C 15.375 -10.425781 14.988281 -10.273438 14.46875 -10.140625 C 13.945312 -10.015625 13.390625 -9.90625 12.796875 -9.8125 C 12.210938 -9.71875 11.6875 -9.632812 11.21875 -9.5625 C 10.101562 -9.40625 9.207031 -9.09375 8.53125 -8.625 C 7.851562 -8.15625 7.515625 -7.476562 7.515625 -6.59375 C 7.515625 -5.71875 7.828125 -5.054688 8.453125 -4.609375 C 9.085938 -4.160156 9.890625 -3.9375 10.859375 -3.9375 Z M 10.859375 -3.9375 "/></g></g></g><g fill="#000000" fill-opacity="1"><g transform="translate(151.932953, 291.312158)"><g><path d="M 2.53125 0 L 2.53125 -22.84375 L 8.859375 -22.84375 L 8.859375 0 Z M 5.703125 -25.796875 C 4.773438 -25.796875 3.972656 -26.109375 3.296875 -26.734375 C 2.617188 -27.367188 2.28125 -28.128906 2.28125 -29.015625 C 2.28125 -29.890625 2.617188 -30.640625 3.296875 -31.265625 C 3.972656 -31.890625 4.773438 -32.203125 5.703125 -32.203125 C 6.648438 -32.203125 7.457031 -31.890625 8.125 -31.265625 C 8.800781 -30.640625 9.140625 -29.890625 9.140625 -29.015625 C 9.140625 -28.128906 8.800781 -27.367188 8.125 -26.734375 C 7.457031 -26.109375 6.648438 -25.796875 5.703125 -25.796875 Z M 5.703125 -25.796875 "/></g></g></g><g fill="#000000" fill-opacity="1"><g transform="translate(163.326708, 291.312158)"><g><path d="M 8.859375 -30.46875 L 8.859375 0 L 2.53125 0 L 2.53125 -30.46875 Z M 8.859375 -30.46875 "/></g></g></g><g fill="#000000" fill-opacity="1"><g transform="translate(174.720464, 291.312158)"><g/></g></g><g fill="#000000" fill-opacity="1"><g transform="translate(184.433422, 291.312158)"><g><path d="M 22.84375 -20.625 C 22.4375 -22.050781 21.6875 -23.164062 20.59375 -23.96875 C 19.5 -24.78125 18.125 -25.1875 16.46875 -25.1875 C 14.132812 -25.1875 12.242188 -24.320312 10.796875 -22.59375 C 9.359375 -20.875 8.640625 -18.429688 8.640625 -15.265625 C 8.640625 -12.078125 9.347656 -9.613281 10.765625 -7.875 C 12.179688 -6.144531 14.101562 -5.28125 16.53125 -5.28125 C 18.664062 -5.28125 20.347656 -5.835938 21.578125 -6.953125 C 22.804688 -8.066406 23.4375 -9.566406 23.46875 -11.453125 L 16.921875 -11.453125 L 16.921875 -16.296875 L 29.671875 -16.296875 L 29.671875 -12.46875 C 29.671875 -9.800781 29.101562 -7.5 27.96875 -5.5625 C 26.84375 -3.632812 25.289062 -2.15625 23.3125 -1.125 C 21.332031 -0.09375 19.0625 0.421875 16.5 0.421875 C 13.644531 0.421875 11.132812 -0.207031 8.96875 -1.46875 C 6.8125 -2.738281 5.128906 -4.539062 3.921875 -6.875 C 2.710938 -9.21875 2.109375 -11.992188 2.109375 -15.203125 C 2.109375 -18.492188 2.738281 -21.304688 4 -23.640625 C 5.257812 -25.984375 6.960938 -27.773438 9.109375 -29.015625 C 11.265625 -30.253906 13.679688 -30.875 16.359375 -30.875 C 18.660156 -30.875 20.742188 -30.4375 22.609375 -29.5625 C 24.472656 -28.695312 26 -27.492188 27.1875 -25.953125 C 28.382812 -24.410156 29.117188 -22.632812 29.390625 -20.625 Z M 22.84375 -20.625 "/></g></g></g><g fill="#000000" fill-opacity="1"><g transform="translate(216.294294, 291.312158)"><g><path d="M 17.1875 -9.734375 L 17.1875 -22.84375 L 23.515625 -22.84375 L 23.515625 0 L 17.4375 0 L 17.4375 -4.15625 L 17.203125 -4.15625 C 16.679688 -2.8125 15.820312 -1.734375 14.625 -0.921875 C 13.4375 -0.109375 11.984375 0.296875 10.265625 0.296875 C 7.960938 0.296875 6.097656 -0.46875 4.671875 -2 C 3.253906 -3.53125 2.539062 -5.628906 2.53125 -8.296875 L 2.53125 -22.84375 L 8.859375 -22.84375 L 8.859375 -9.4375 C 8.867188 -8.082031 9.226562 -7.015625 9.9375 -6.234375 C 10.65625 -5.453125 11.617188 -5.0625 12.828125 -5.0625 C 13.960938 -5.0625 14.972656 -5.457031 15.859375 -6.25 C 16.753906 -7.039062 17.195312 -8.203125 17.1875 -9.734375 Z M 17.1875 -9.734375 "/></g></g></g><g fill="#000000" fill-opacity="1"><g transform="translate(242.339295, 291.312158)"><g><path d="M 9.046875 0.4375 C 6.859375 0.4375 5.046875 -0.128906 3.609375 -1.265625 C 2.171875 -2.410156 1.453125 -4.113281 1.453125 -6.375 C 1.453125 -8.082031 1.851562 -9.421875 2.65625 -10.390625 C 3.46875 -11.367188 4.523438 -12.082031 5.828125 -12.53125 C 7.128906 -12.976562 8.535156 -13.273438 10.046875 -13.421875 C 12.023438 -13.617188 13.441406 -13.828125 14.296875 -14.046875 C 15.148438 -14.265625 15.578125 -14.738281 15.578125 -15.46875 L 15.578125 -15.5625 C 15.578125 -16.5 15.28125 -17.222656 14.6875 -17.734375 C 14.101562 -18.253906 13.269531 -18.515625 12.1875 -18.515625 C 11.039062 -18.515625 10.128906 -18.265625 9.453125 -17.765625 C 8.785156 -17.273438 8.34375 -16.648438 8.125 -15.890625 L 2.265625 -16.359375 C 2.703125 -18.441406 3.785156 -20.09375 5.515625 -21.3125 C 7.242188 -22.53125 9.476562 -23.140625 12.21875 -23.140625 C 13.90625 -23.140625 15.488281 -22.875 16.96875 -22.34375 C 18.445312 -21.8125 19.640625 -20.976562 20.546875 -19.84375 C 21.453125 -18.707031 21.90625 -17.226562 21.90625 -15.40625 L 21.90625 0 L 15.90625 0 L 15.90625 -3.171875 L 15.71875 -3.171875 C 15.164062 -2.109375 14.335938 -1.238281 13.234375 -0.5625 C 12.128906 0.101562 10.734375 0.4375 9.046875 0.4375 Z M 10.859375 -3.9375 C 12.242188 -3.9375 13.382812 -4.335938 14.28125 -5.140625 C 15.175781 -5.953125 15.625 -6.960938 15.625 -8.171875 L 15.625 -10.59375 C 15.375 -10.425781 14.988281 -10.273438 14.46875 -10.140625 C 13.945312 -10.015625 13.390625 -9.90625 12.796875 -9.8125 C 12.210938 -9.71875 11.6875 -9.632812 11.21875 -9.5625 C 10.101562 -9.40625 9.207031 -9.09375 8.53125 -8.625 C 7.851562 -8.15625 7.515625 -7.476562 7.515625 -6.59375 C 7.515625 -5.71875 7.828125 -5.054688 8.453125 -4.609375 C 9.085938 -4.160156 9.890625 -3.9375 10.859375 -3.9375 Z M 10.859375 -3.9375 "/></g></g></g><g fill="#000000" fill-opacity="1"><g transform="translate(266.643998, 291.312158)"><g><path d="M 2.53125 0 L 2.53125 -22.84375 L 8.671875 -22.84375 L 8.671875 -18.859375 L 8.90625 -18.859375 C 9.320312 -20.273438 10.019531 -21.347656 11 -22.078125 C 11.976562 -22.804688 13.113281 -23.171875 14.40625 -23.171875 C 15.019531 -23.171875 15.585938 -23.097656 16.109375 -22.953125 C 16.640625 -22.804688 17.113281 -22.601562 17.53125 -22.34375 L 15.625 -17.109375 C 15.320312 -17.253906 14.992188 -17.378906 14.640625 -17.484375 C 14.296875 -17.585938 13.90625 -17.640625 13.46875 -17.640625 C 12.1875 -17.640625 11.097656 -17.203125 10.203125 -16.328125 C 9.316406 -15.460938 8.867188 -14.328125 8.859375 -12.921875 L 8.859375 0 Z M 2.53125 0 "/></g></g></g><g fill="#000000" fill-opacity="1"><g transform="translate(284.597349, 291.312158)"><g><path d="M 10.953125 0.375 C 9.210938 0.375 7.644531 -0.0703125 6.25 -0.96875 C 4.851562 -1.875 3.742188 -3.203125 2.921875 -4.953125 C 2.097656 -6.703125 1.6875 -8.847656 1.6875 -11.390625 C 1.6875 -14.015625 2.109375 -16.195312 2.953125 -17.9375 C 3.796875 -19.675781 4.921875 -20.976562 6.328125 -21.84375 C 7.734375 -22.707031 9.269531 -23.140625 10.9375 -23.140625 C 12.21875 -23.140625 13.285156 -22.925781 14.140625 -22.5 C 14.992188 -22.070312 15.6875 -21.539062 16.21875 -20.90625 C 16.75 -20.269531 17.15625 -19.640625 17.4375 -19.015625 L 17.625 -19.015625 L 17.625 -30.46875 L 23.953125 -30.46875 L 23.953125 0 L 17.703125 0 L 17.703125 -3.65625 L 17.4375 -3.65625 C 17.144531 -3.019531 16.722656 -2.390625 16.171875 -1.765625 C 15.628906 -1.148438 14.929688 -0.640625 14.078125 -0.234375 C 13.222656 0.171875 12.179688 0.375 10.953125 0.375 Z M 12.953125 -4.671875 C 14.484375 -4.671875 15.664062 -5.285156 16.5 -6.515625 C 17.34375 -7.753906 17.765625 -9.390625 17.765625 -11.421875 C 17.765625 -13.460938 17.347656 -15.085938 16.515625 -16.296875 C 15.679688 -17.503906 14.492188 -18.109375 12.953125 -18.109375 C 11.390625 -18.109375 10.195312 -17.488281 9.375 -16.25 C 8.5625 -15.019531 8.15625 -13.410156 8.15625 -11.421875 C 8.15625 -9.429688 8.566406 -7.804688 9.390625 -6.546875 C 10.210938 -5.296875 11.398438 -4.671875 12.953125 -4.671875 Z M 12.953125 -4.671875 "/></g></g></g></svg>