<svg xmlns="http://www.w3.org/2000/svg" xmlns:xlink="http://www.w3.org/1999/xlink" width="500" zoomAndPan="magnify" viewBox="0 0 375 374.999991" height="500" preserveAspectRatio="xMidYMid meet" version="1.0"><defs><clipPath id="09199789c3"><path d="M 91.105469 60.664062 L 286.855469 60.664062 L 286.855469 317.914062 L 91.105469 317.914062 Z M 91.105469 60.664062 " clip-rule="nonzero"/></clipPath><clipPath id="ddfa8654d6"><path d="M 115.121094 134.582031 L 259.871094 134.582031 L 259.871094 229.832031 L 115.121094 229.832031 Z M 115.121094 134.582031 " clip-rule="nonzero"/></clipPath></defs><rect x="-37.5" width="450" fill="#ffffff" y="-37.499999" height="449.999989" fill-opacity="1"/><rect x="-37.5" width="450" fill="#ffffff" y="-37.499999" height="449.999989" fill-opacity="1"/><g clip-path="url(#09199789c3)"><path fill="#292626" d="M 286.148438 127.847656 C 286.039062 119.34375 285.707031 112.335938 285.375 107.53125 C 285.320312 106.316406 284.273438 105.324219 283.058594 105.324219 C 276.710938 105.15625 270.914062 102.617188 266.496094 98.589844 C 262.082031 94.503906 259.042969 88.925781 258.160156 82.632812 L 258.105469 82.414062 C 257.828125 81.253906 257.664062 79.984375 257.609375 78.660156 C 257.5 77.390625 256.449219 76.394531 255.125 76.453125 C 253.964844 76.507812 252.75 76.5625 251.648438 76.5625 C 249.050781 76.5625 245.296875 75.679688 240.882812 74.1875 C 234.257812 72.035156 226.140625 68.667969 217.253906 65.851562 C 208.367188 62.980469 198.707031 60.664062 188.878906 60.664062 C 175.796875 60.664062 162.933594 64.75 151.890625 68.722656 C 146.371094 70.710938 141.292969 72.699219 136.875 74.132812 C 132.460938 75.566406 128.707031 76.507812 126.113281 76.507812 C 124.953125 76.507812 123.792969 76.453125 122.632812 76.394531 C 121.363281 76.339844 120.261719 77.335938 120.148438 78.605469 C 120.039062 79.929688 119.929688 81.199219 119.652344 82.359375 L 119.597656 82.578125 C 118.714844 88.871094 115.679688 94.503906 111.261719 98.535156 C 106.84375 102.617188 101.046875 105.101562 94.699219 105.269531 C 93.484375 105.324219 92.492188 106.261719 92.382812 107.476562 C 92.050781 112.277344 91.71875 119.289062 91.609375 127.792969 C 91.441406 139.21875 91.167969 150.867188 91.167969 162.460938 C 91.167969 187.742188 92.4375 212.75 99.28125 234.832031 C 102.703125 245.875 107.507812 256.140625 114.296875 265.304688 C 121.03125 274.46875 129.753906 282.476562 140.851562 288.878906 C 158.957031 299.367188 170.660156 306.488281 177.78125 311.015625 C 181.371094 313.277344 183.800781 314.878906 185.347656 315.929688 C 186.117188 316.425781 186.671875 316.8125 187.003906 317.03125 C 187.167969 317.144531 187.277344 317.253906 187.390625 317.308594 L 187.5 317.363281 C 188.328125 317.972656 189.488281 317.972656 190.316406 317.363281 C 190.867188 316.976562 201.796875 309.195312 236.90625 288.878906 C 248.003906 282.476562 256.726562 274.46875 263.460938 265.304688 C 273.617188 251.558594 279.359375 235.273438 282.617188 217.71875 C 285.875 200.164062 286.589844 181.339844 286.589844 162.40625 C 286.589844 150.867188 286.316406 139.21875 286.148438 127.847656 Z M 273.949219 233.398438 C 270.636719 244.050781 266.054688 253.824219 259.652344 262.492188 C 253.246094 271.15625 245.078125 278.664062 234.535156 284.738281 C 205.332031 301.632812 192.742188 309.910156 188.878906 312.507812 C 185.015625 309.855469 172.429688 301.574219 143.226562 284.738281 C 132.679688 278.609375 124.511719 271.101562 118.105469 262.492188 C 108.5 249.519531 102.980469 233.949219 99.835938 216.890625 C 96.6875 199.832031 95.96875 181.285156 95.96875 162.460938 C 95.96875 150.976562 96.246094 139.328125 96.410156 127.902344 C 96.523438 120.613281 96.796875 114.488281 97.074219 109.90625 C 103.699219 109.242188 109.714844 106.371094 114.464844 102.066406 C 119.652344 97.261719 123.242188 90.75 124.289062 83.296875 C 124.457031 82.632812 124.566406 81.917969 124.675781 81.199219 C 125.171875 81.199219 125.613281 81.199219 126.113281 81.199219 C 129.699219 81.199219 133.785156 80.09375 138.367188 78.605469 C 145.269531 76.339844 153.328125 73.027344 161.9375 70.269531 C 170.605469 67.507812 179.824219 65.355469 188.878906 65.355469 C 200.96875 65.355469 213.335938 69.164062 224.265625 73.140625 C 229.730469 75.125 234.808594 77.058594 239.445312 78.605469 C 244.027344 80.09375 248.113281 81.199219 251.703125 81.199219 C 252.199219 81.199219 252.695312 81.199219 253.136719 81.199219 C 253.246094 81.917969 253.359375 82.578125 253.523438 83.296875 C 254.574219 90.695312 258.160156 97.261719 263.351562 102.066406 C 268.042969 106.371094 274.113281 109.242188 280.792969 109.90625 C 281.070312 114.488281 281.347656 120.613281 281.457031 127.902344 C 281.621094 139.328125 281.898438 150.921875 281.898438 162.460938 C 281.84375 187.523438 280.519531 212.144531 273.949219 233.398438 Z M 273.949219 233.398438 " fill-opacity="1" fill-rule="nonzero"/></g><g clip-path="url(#ddfa8654d6)"><path fill="#292626" d="M 251.578125 134.828125 L 123.289062 134.828125 C 122.75 134.828125 122.214844 134.878906 121.6875 134.988281 C 121.15625 135.09375 120.644531 135.25 120.144531 135.457031 C 119.648438 135.660156 119.171875 135.914062 118.726562 136.214844 C 118.277344 136.515625 117.859375 136.855469 117.480469 137.238281 C 117.097656 137.621094 116.757812 138.035156 116.457031 138.484375 C 116.15625 138.933594 115.902344 139.40625 115.695312 139.902344 C 115.488281 140.402344 115.332031 140.917969 115.226562 141.445312 C 115.121094 141.976562 115.070312 142.507812 115.070312 143.050781 L 115.070312 221.242188 C 115.070312 221.78125 115.121094 222.316406 115.226562 222.84375 C 115.332031 223.375 115.488281 223.886719 115.695312 224.386719 C 115.902344 224.886719 116.15625 225.359375 116.457031 225.808594 C 116.757812 226.257812 117.097656 226.671875 117.480469 227.050781 C 117.859375 227.433594 118.277344 227.773438 118.726562 228.074219 C 119.171875 228.375 119.648438 228.628906 120.144531 228.835938 C 120.644531 229.042969 121.15625 229.199219 121.6875 229.304688 C 122.214844 229.410156 122.75 229.464844 123.289062 229.464844 L 251.578125 229.464844 C 252.117188 229.464844 252.652344 229.410156 253.179688 229.304688 C 253.710938 229.199219 254.226562 229.042969 254.722656 228.835938 C 255.222656 228.628906 255.695312 228.375 256.144531 228.074219 C 256.59375 227.777344 257.007812 227.433594 257.390625 227.054688 C 257.773438 226.671875 258.113281 226.257812 258.414062 225.808594 C 258.714844 225.359375 258.964844 224.886719 259.171875 224.386719 C 259.378906 223.886719 259.535156 223.375 259.640625 222.84375 C 259.746094 222.316406 259.800781 221.78125 259.800781 221.242188 L 259.800781 143.050781 C 259.800781 142.507812 259.746094 141.976562 259.640625 141.445312 C 259.535156 140.917969 259.378906 140.402344 259.171875 139.902344 C 258.964844 139.40625 258.714844 138.929688 258.414062 138.484375 C 258.113281 138.035156 257.773438 137.617188 257.390625 137.238281 C 257.007812 136.855469 256.59375 136.515625 256.144531 136.214844 C 255.695312 135.914062 255.222656 135.660156 254.722656 135.453125 C 254.226562 135.246094 253.710938 135.089844 253.179688 134.984375 C 252.652344 134.878906 252.117188 134.828125 251.578125 134.828125 Z M 210.179688 182.144531 L 255.347656 141.882812 C 255.472656 142.261719 255.535156 142.652344 255.542969 143.050781 L 255.542969 221.242188 C 255.535156 221.640625 255.472656 222.027344 255.347656 222.40625 Z M 251.574219 139.085938 C 251.722656 139.09375 251.875 139.109375 252.023438 139.132812 L 190.058594 194.367188 C 189.695312 194.691406 189.285156 194.9375 188.832031 195.113281 C 188.378906 195.285156 187.910156 195.371094 187.425781 195.371094 C 186.9375 195.371094 186.46875 195.285156 186.015625 195.113281 C 185.5625 194.9375 185.152344 194.691406 184.789062 194.367188 L 122.839844 139.132812 C 122.992188 139.109375 123.140625 139.09375 123.289062 139.085938 Z M 119.523438 222.40625 C 119.398438 222.027344 119.335938 221.640625 119.328125 221.242188 L 119.328125 143.050781 C 119.335938 142.652344 119.398438 142.261719 119.523438 141.882812 L 164.6875 182.144531 Z M 123.289062 225.207031 C 123.140625 225.199219 122.992188 225.183594 122.839844 225.160156 L 167.886719 185.003906 L 181.96875 197.546875 C 182.339844 197.878906 182.742188 198.175781 183.167969 198.4375 C 183.59375 198.695312 184.042969 198.914062 184.507812 199.09375 C 184.976562 199.269531 185.457031 199.40625 185.949219 199.496094 C 186.4375 199.585938 186.933594 199.632812 187.433594 199.632812 C 187.933594 199.632812 188.429688 199.585938 188.921875 199.496094 C 189.414062 199.40625 189.894531 199.269531 190.359375 199.09375 C 190.828125 198.914062 191.273438 198.695312 191.703125 198.4375 C 192.128906 198.175781 192.53125 197.878906 192.902344 197.546875 L 206.980469 185 L 252.023438 225.15625 C 251.875 225.179688 251.726562 225.195312 251.574219 225.203125 Z M 123.289062 225.207031 " fill-opacity="1" fill-rule="nonzero"/></g></svg>