<svg xmlns="http://www.w3.org/2000/svg" xmlns:xlink="http://www.w3.org/1999/xlink" width="500" zoomAndPan="magnify" viewBox="0 0 375 374.999991" height="500" preserveAspectRatio="xMidYMid meet" version="1.0"><defs><g/><clipPath id="853309ee61"><path d="M 119.230469 119.078125 L 255.730469 119.078125 L 255.730469 299 L 119.230469 299 Z M 119.230469 119.078125 " clip-rule="nonzero"/></clipPath><clipPath id="d6c3e0e8aa"><path d="M 137.667969 172.472656 L 237.417969 172.472656 L 237.417969 237.722656 L 137.667969 237.722656 Z M 137.667969 172.472656 " clip-rule="nonzero"/></clipPath></defs><rect x="-37.5" width="450" fill="#ffffff" y="-37.499999" height="449.999989" fill-opacity="1"/><rect x="-37.5" width="450" fill="#ffffff" y="-37.499999" height="449.999989" fill-opacity="1"/><g clip-path="url(#853309ee61)"><path fill="#004aad" d="M 255.410156 165.984375 C 255.332031 160.046875 255.101562 155.152344 254.871094 151.800781 C 254.832031 150.953125 254.097656 150.257812 253.25 150.257812 C 248.820312 150.140625 244.773438 148.367188 241.6875 145.554688 C 238.605469 142.703125 236.484375 138.808594 235.867188 134.417969 L 235.828125 134.261719 C 235.636719 133.453125 235.519531 132.566406 235.484375 131.640625 C 235.40625 130.753906 234.671875 130.0625 233.75 130.097656 C 232.9375 130.136719 232.089844 130.175781 231.320312 130.175781 C 229.507812 130.175781 226.886719 129.558594 223.804688 128.519531 C 219.179688 127.015625 213.511719 124.664062 207.308594 122.699219 C 201.101562 120.695312 194.359375 119.078125 187.496094 119.078125 C 178.363281 119.078125 169.382812 121.929688 161.671875 124.703125 C 157.820312 126.089844 154.273438 127.480469 151.1875 128.480469 C 148.105469 129.484375 145.484375 130.136719 143.671875 130.136719 C 142.863281 130.136719 142.054688 130.097656 141.246094 130.0625 C 140.359375 130.023438 139.589844 130.714844 139.511719 131.601562 C 139.433594 132.527344 139.355469 133.414062 139.164062 134.222656 L 139.125 134.378906 C 138.507812 138.773438 136.390625 142.703125 133.304688 145.515625 C 130.222656 148.367188 126.175781 150.101562 121.742188 150.21875 C 120.894531 150.257812 120.199219 150.914062 120.125 151.761719 C 119.890625 155.113281 119.660156 160.007812 119.585938 165.945312 C 119.46875 173.921875 119.277344 182.054688 119.277344 190.148438 C 119.277344 207.800781 120.164062 225.261719 124.941406 240.679688 C 127.332031 248.386719 130.683594 255.558594 135.425781 261.953125 C 140.128906 268.351562 146.21875 273.941406 153.964844 278.414062 C 166.605469 285.734375 174.777344 290.707031 179.75 293.867188 C 182.253906 295.449219 183.949219 296.566406 185.03125 297.296875 C 185.570312 297.644531 185.957031 297.914062 186.1875 298.070312 C 186.300781 298.148438 186.378906 298.222656 186.457031 298.261719 L 186.535156 298.300781 C 187.113281 298.726562 187.921875 298.726562 188.5 298.300781 C 188.882812 298.03125 196.515625 292.597656 221.027344 278.414062 C 228.777344 273.941406 234.867188 268.351562 239.566406 261.953125 C 246.660156 252.359375 250.667969 240.988281 252.941406 228.730469 C 255.214844 216.472656 255.71875 203.332031 255.71875 190.109375 C 255.71875 182.054688 255.523438 173.921875 255.410156 165.984375 Z M 246.890625 239.675781 C 244.578125 247.117188 241.378906 253.9375 236.910156 259.988281 C 232.4375 266.039062 226.734375 271.28125 219.371094 275.523438 C 198.984375 287.316406 190.195312 293.097656 187.496094 294.910156 C 184.796875 293.058594 176.011719 287.277344 155.621094 275.523438 C 148.261719 271.242188 142.554688 266 138.085938 259.988281 C 131.378906 250.929688 127.523438 240.0625 125.328125 228.152344 C 123.128906 216.242188 122.628906 203.292969 122.628906 190.148438 C 122.628906 182.132812 122.820312 174 122.9375 166.023438 C 123.015625 160.933594 123.207031 156.65625 123.398438 153.457031 C 128.023438 152.992188 132.226562 150.988281 135.539062 147.984375 C 139.164062 144.628906 141.667969 140.082031 142.402344 134.878906 C 142.515625 134.417969 142.59375 133.914062 142.671875 133.414062 C 143.019531 133.414062 143.328125 133.414062 143.671875 133.414062 C 146.179688 133.414062 149.03125 132.644531 152.230469 131.601562 C 157.046875 130.023438 162.675781 127.710938 168.6875 125.78125 C 174.738281 123.855469 181.175781 122.351562 187.496094 122.351562 C 195.9375 122.351562 204.570312 125.011719 212.203125 127.785156 C 216.019531 129.175781 219.566406 130.523438 222.800781 131.601562 C 226 132.644531 228.851562 133.414062 231.359375 133.414062 C 231.707031 133.414062 232.050781 133.414062 232.359375 133.414062 C 232.4375 133.914062 232.515625 134.378906 232.628906 134.878906 C 233.363281 140.042969 235.867188 144.628906 239.492188 147.984375 C 242.765625 150.988281 247.007812 152.992188 251.671875 153.457031 C 251.863281 156.65625 252.054688 160.933594 252.132812 166.023438 C 252.25 174 252.441406 182.09375 252.441406 190.148438 C 252.402344 207.648438 251.476562 224.839844 246.890625 239.675781 Z M 246.890625 239.675781 " fill-opacity="1" fill-rule="nonzero"/></g><g clip-path="url(#d6c3e0e8aa)"><path fill="#004aad" d="M 231.613281 172.644531 L 143.292969 172.644531 C 142.921875 172.644531 142.550781 172.679688 142.1875 172.753906 C 141.824219 172.828125 141.46875 172.933594 141.125 173.078125 C 140.785156 173.21875 140.457031 173.394531 140.148438 173.601562 C 139.839844 173.804688 139.554688 174.042969 139.289062 174.304688 C 139.027344 174.566406 138.792969 174.851562 138.585938 175.160156 C 138.378906 175.46875 138.207031 175.796875 138.0625 176.140625 C 137.921875 176.484375 137.8125 176.835938 137.742188 177.199219 C 137.667969 177.566406 137.632812 177.933594 137.632812 178.304688 L 137.632812 232.136719 C 137.632812 232.507812 137.667969 232.878906 137.742188 233.242188 C 137.8125 233.605469 137.921875 233.960938 138.0625 234.304688 C 138.207031 234.648438 138.378906 234.972656 138.585938 235.28125 C 138.792969 235.589844 139.027344 235.875 139.289062 236.140625 C 139.554688 236.402344 139.839844 236.636719 140.148438 236.84375 C 140.457031 237.050781 140.785156 237.222656 141.125 237.367188 C 141.46875 237.507812 141.824219 237.617188 142.1875 237.6875 C 142.550781 237.761719 142.921875 237.796875 143.292969 237.796875 L 231.613281 237.796875 C 231.984375 237.796875 232.355469 237.761719 232.71875 237.6875 C 233.082031 237.617188 233.4375 237.507812 233.78125 237.367188 C 234.121094 237.222656 234.449219 237.050781 234.757812 236.84375 C 235.066406 236.636719 235.351562 236.402344 235.617188 236.140625 C 235.878906 235.875 236.113281 235.589844 236.320312 235.28125 C 236.527344 234.972656 236.699219 234.648438 236.84375 234.304688 C 236.984375 233.960938 237.09375 233.605469 237.164062 233.242188 C 237.238281 232.878906 237.273438 232.507812 237.277344 232.136719 L 237.277344 178.304688 C 237.273438 177.933594 237.238281 177.566406 237.164062 177.199219 C 237.09375 176.835938 236.984375 176.484375 236.84375 176.140625 C 236.699219 175.796875 236.527344 175.46875 236.320312 175.160156 C 236.113281 174.851562 235.878906 174.566406 235.617188 174.304688 C 235.351562 174.039062 235.066406 173.804688 234.757812 173.601562 C 234.449219 173.394531 234.121094 173.21875 233.78125 173.078125 C 233.4375 172.933594 233.082031 172.828125 232.71875 172.753906 C 232.355469 172.679688 231.984375 172.644531 231.613281 172.644531 Z M 203.113281 205.222656 L 234.207031 177.503906 C 234.292969 177.761719 234.339844 178.03125 234.34375 178.304688 L 234.34375 232.136719 C 234.339844 232.414062 234.292969 232.679688 234.207031 232.941406 Z M 231.609375 175.578125 C 231.714844 175.582031 231.816406 175.59375 231.921875 175.609375 L 189.257812 213.636719 C 189.007812 213.859375 188.726562 214.03125 188.417969 214.148438 C 188.105469 214.269531 187.78125 214.328125 187.445312 214.328125 C 187.113281 214.328125 186.789062 214.269531 186.476562 214.148438 C 186.164062 214.03125 185.882812 213.859375 185.632812 213.636719 L 142.984375 175.609375 C 143.085938 175.59375 143.1875 175.582031 143.292969 175.578125 Z M 140.699219 232.941406 C 140.613281 232.679688 140.566406 232.414062 140.566406 232.136719 L 140.566406 178.304688 C 140.566406 178.03125 140.613281 177.761719 140.699219 177.503906 L 171.792969 205.222656 Z M 143.292969 234.867188 C 143.1875 234.863281 143.085938 234.851562 142.984375 234.835938 L 173.996094 207.1875 L 183.6875 215.824219 C 183.945312 216.054688 184.222656 216.257812 184.515625 216.4375 C 184.808594 216.617188 185.117188 216.765625 185.4375 216.890625 C 185.761719 217.011719 186.089844 217.105469 186.429688 217.167969 C 186.769531 217.230469 187.109375 217.261719 187.453125 217.261719 C 187.796875 217.261719 188.140625 217.230469 188.476562 217.167969 C 188.816406 217.105469 189.144531 217.011719 189.46875 216.890625 C 189.789062 216.765625 190.097656 216.617188 190.390625 216.4375 C 190.683594 216.257812 190.960938 216.054688 191.21875 215.824219 L 200.910156 207.1875 L 231.921875 234.835938 C 231.820312 234.851562 231.714844 234.859375 231.613281 234.867188 Z M 143.292969 234.867188 " fill-opacity="1" fill-rule="nonzero"/></g><g fill="#000000" fill-opacity="1"><g transform="translate(63.77264, 104.06185)"><g><path d="M 2.640625 0 L 2.640625 -30.46875 L 23.171875 -30.46875 L 23.171875 -25.15625 L 9.09375 -25.15625 L 9.09375 -17.890625 L 22.125 -17.890625 L 22.125 -12.578125 L 9.09375 -12.578125 L 9.09375 -5.3125 L 23.234375 -5.3125 L 23.234375 0 Z M 2.640625 0 "/></g></g></g><g fill="#000000" fill-opacity="1"><g transform="translate(89.430903, 104.06185)"><g><path d="M 2.53125 0 L 2.53125 -22.84375 L 8.5625 -22.84375 L 8.5625 -18.8125 L 8.84375 -18.8125 C 9.3125 -20.164062 10.101562 -21.222656 11.21875 -21.984375 C 12.332031 -22.753906 13.660156 -23.140625 15.203125 -23.140625 C 16.765625 -23.140625 18.097656 -22.75 19.203125 -21.96875 C 20.304688 -21.195312 21.039062 -20.144531 21.40625 -18.8125 L 21.640625 -18.8125 C 22.109375 -20.125 22.953125 -21.171875 24.171875 -21.953125 C 25.398438 -22.742188 26.851562 -23.140625 28.53125 -23.140625 C 30.664062 -23.140625 32.398438 -22.460938 33.734375 -21.109375 C 35.066406 -19.753906 35.734375 -17.835938 35.734375 -15.359375 L 35.734375 0 L 29.40625 0 L 29.40625 -14.125 C 29.40625 -15.382812 29.066406 -16.332031 28.390625 -16.96875 C 27.722656 -17.601562 26.882812 -17.921875 25.875 -17.921875 C 24.71875 -17.921875 23.816406 -17.550781 23.171875 -16.8125 C 22.523438 -16.082031 22.203125 -15.128906 22.203125 -13.953125 L 22.203125 0 L 16.0625 0 L 16.0625 -14.25 C 16.0625 -15.375 15.738281 -16.265625 15.09375 -16.921875 C 14.457031 -17.585938 13.617188 -17.921875 12.578125 -17.921875 C 11.535156 -17.921875 10.65625 -17.535156 9.9375 -16.765625 C 9.21875 -16.003906 8.859375 -14.988281 8.859375 -13.71875 L 8.859375 0 Z M 2.53125 0 "/></g></g></g><g fill="#000000" fill-opacity="1"><g transform="translate(127.62825, 104.06185)"><g><path d="M 9.046875 0.4375 C 6.859375 0.4375 5.046875 -0.128906 3.609375 -1.265625 C 2.171875 -2.410156 1.453125 -4.113281 1.453125 -6.375 C 1.453125 -8.082031 1.851562 -9.421875 2.65625 -10.390625 C 3.46875 -11.367188 4.523438 -12.082031 5.828125 -12.53125 C 7.128906 -12.976562 8.535156 -13.273438 10.046875 -13.421875 C 12.023438 -13.617188 13.441406 -13.828125 14.296875 -14.046875 C 15.148438 -14.265625 15.578125 -14.738281 15.578125 -15.46875 L 15.578125 -15.5625 C 15.578125 -16.5 15.28125 -17.222656 14.6875 -17.734375 C 14.101562 -18.253906 13.269531 -18.515625 12.1875 -18.515625 C 11.039062 -18.515625 10.128906 -18.265625 9.453125 -17.765625 C 8.785156 -17.273438 8.34375 -16.648438 8.125 -15.890625 L 2.265625 -16.359375 C 2.703125 -18.441406 3.785156 -20.09375 5.515625 -21.3125 C 7.242188 -22.53125 9.476562 -23.140625 12.21875 -23.140625 C 13.90625 -23.140625 15.488281 -22.875 16.96875 -22.34375 C 18.445312 -21.8125 19.640625 -20.976562 20.546875 -19.84375 C 21.453125 -18.707031 21.90625 -17.226562 21.90625 -15.40625 L 21.90625 0 L 15.90625 0 L 15.90625 -3.171875 L 15.71875 -3.171875 C 15.164062 -2.109375 14.335938 -1.238281 13.234375 -0.5625 C 12.128906 0.101562 10.734375 0.4375 9.046875 0.4375 Z M 10.859375 -3.9375 C 12.242188 -3.9375 13.382812 -4.335938 14.28125 -5.140625 C 15.175781 -5.953125 15.625 -6.960938 15.625 -8.171875 L 15.625 -10.59375 C 15.375 -10.425781 14.988281 -10.273438 14.46875 -10.140625 C 13.945312 -10.015625 13.390625 -9.90625 12.796875 -9.8125 C 12.210938 -9.71875 11.6875 -9.632812 11.21875 -9.5625 C 10.101562 -9.40625 9.207031 -9.09375 8.53125 -8.625 C 7.851562 -8.15625 7.515625 -7.476562 7.515625 -6.59375 C 7.515625 -5.71875 7.828125 -5.054688 8.453125 -4.609375 C 9.085938 -4.160156 9.890625 -3.9375 10.859375 -3.9375 Z M 10.859375 -3.9375 "/></g></g></g><g fill="#000000" fill-opacity="1"><g transform="translate(151.932953, 104.06185)"><g><path d="M 2.53125 0 L 2.53125 -22.84375 L 8.859375 -22.84375 L 8.859375 0 Z M 5.703125 -25.796875 C 4.773438 -25.796875 3.972656 -26.109375 3.296875 -26.734375 C 2.617188 -27.367188 2.28125 -28.128906 2.28125 -29.015625 C 2.28125 -29.890625 2.617188 -30.640625 3.296875 -31.265625 C 3.972656 -31.890625 4.773438 -32.203125 5.703125 -32.203125 C 6.648438 -32.203125 7.457031 -31.890625 8.125 -31.265625 C 8.800781 -30.640625 9.140625 -29.890625 9.140625 -29.015625 C 9.140625 -28.128906 8.800781 -27.367188 8.125 -26.734375 C 7.457031 -26.109375 6.648438 -25.796875 5.703125 -25.796875 Z M 5.703125 -25.796875 "/></g></g></g><g fill="#000000" fill-opacity="1"><g transform="translate(163.326708, 104.06185)"><g><path d="M 8.859375 -30.46875 L 8.859375 0 L 2.53125 0 L 2.53125 -30.46875 Z M 8.859375 -30.46875 "/></g></g></g><g fill="#000000" fill-opacity="1"><g transform="translate(174.720464, 104.06185)"><g/></g></g><g fill="#000000" fill-opacity="1"><g transform="translate(184.433422, 104.06185)"><g><path d="M 22.84375 -20.625 C 22.4375 -22.050781 21.6875 -23.164062 20.59375 -23.96875 C 19.5 -24.78125 18.125 -25.1875 16.46875 -25.1875 C 14.132812 -25.1875 12.242188 -24.320312 10.796875 -22.59375 C 9.359375 -20.875 8.640625 -18.429688 8.640625 -15.265625 C 8.640625 -12.078125 9.347656 -9.613281 10.765625 -7.875 C 12.179688 -6.144531 14.101562 -5.28125 16.53125 -5.28125 C 18.664062 -5.28125 20.347656 -5.835938 21.578125 -6.953125 C 22.804688 -8.066406 23.4375 -9.566406 23.46875 -11.453125 L 16.921875 -11.453125 L 16.921875 -16.296875 L 29.671875 -16.296875 L 29.671875 -12.46875 C 29.671875 -9.800781 29.101562 -7.5 27.96875 -5.5625 C 26.84375 -3.632812 25.289062 -2.15625 23.3125 -1.125 C 21.332031 -0.09375 19.0625 0.421875 16.5 0.421875 C 13.644531 0.421875 11.132812 -0.207031 8.96875 -1.46875 C 6.8125 -2.738281 5.128906 -4.539062 3.921875 -6.875 C 2.710938 -9.21875 2.109375 -11.992188 2.109375 -15.203125 C 2.109375 -18.492188 2.738281 -21.304688 4 -23.640625 C 5.257812 -25.984375 6.960938 -27.773438 9.109375 -29.015625 C 11.265625 -30.253906 13.679688 -30.875 16.359375 -30.875 C 18.660156 -30.875 20.742188 -30.4375 22.609375 -29.5625 C 24.472656 -28.695312 26 -27.492188 27.1875 -25.953125 C 28.382812 -24.410156 29.117188 -22.632812 29.390625 -20.625 Z M 22.84375 -20.625 "/></g></g></g><g fill="#000000" fill-opacity="1"><g transform="translate(216.294294, 104.06185)"><g><path d="M 17.1875 -9.734375 L 17.1875 -22.84375 L 23.515625 -22.84375 L 23.515625 0 L 17.4375 0 L 17.4375 -4.15625 L 17.203125 -4.15625 C 16.679688 -2.8125 15.820312 -1.734375 14.625 -0.921875 C 13.4375 -0.109375 11.984375 0.296875 10.265625 0.296875 C 7.960938 0.296875 6.097656 -0.46875 4.671875 -2 C 3.253906 -3.53125 2.539062 -5.628906 2.53125 -8.296875 L 2.53125 -22.84375 L 8.859375 -22.84375 L 8.859375 -9.4375 C 8.867188 -8.082031 9.226562 -7.015625 9.9375 -6.234375 C 10.65625 -5.453125 11.617188 -5.0625 12.828125 -5.0625 C 13.960938 -5.0625 14.972656 -5.457031 15.859375 -6.25 C 16.753906 -7.039062 17.195312 -8.203125 17.1875 -9.734375 Z M 17.1875 -9.734375 "/></g></g></g><g fill="#000000" fill-opacity="1"><g transform="translate(242.339295, 104.06185)"><g><path d="M 9.046875 0.4375 C 6.859375 0.4375 5.046875 -0.128906 3.609375 -1.265625 C 2.171875 -2.410156 1.453125 -4.113281 1.453125 -6.375 C 1.453125 -8.082031 1.851562 -9.421875 2.65625 -10.390625 C 3.46875 -11.367188 4.523438 -12.082031 5.828125 -12.53125 C 7.128906 -12.976562 8.535156 -13.273438 10.046875 -13.421875 C 12.023438 -13.617188 13.441406 -13.828125 14.296875 -14.046875 C 15.148438 -14.265625 15.578125 -14.738281 15.578125 -15.46875 L 15.578125 -15.5625 C 15.578125 -16.5 15.28125 -17.222656 14.6875 -17.734375 C 14.101562 -18.253906 13.269531 -18.515625 12.1875 -18.515625 C 11.039062 -18.515625 10.128906 -18.265625 9.453125 -17.765625 C 8.785156 -17.273438 8.34375 -16.648438 8.125 -15.890625 L 2.265625 -16.359375 C 2.703125 -18.441406 3.785156 -20.09375 5.515625 -21.3125 C 7.242188 -22.53125 9.476562 -23.140625 12.21875 -23.140625 C 13.90625 -23.140625 15.488281 -22.875 16.96875 -22.34375 C 18.445312 -21.8125 19.640625 -20.976562 20.546875 -19.84375 C 21.453125 -18.707031 21.90625 -17.226562 21.90625 -15.40625 L 21.90625 0 L 15.90625 0 L 15.90625 -3.171875 L 15.71875 -3.171875 C 15.164062 -2.109375 14.335938 -1.238281 13.234375 -0.5625 C 12.128906 0.101562 10.734375 0.4375 9.046875 0.4375 Z M 10.859375 -3.9375 C 12.242188 -3.9375 13.382812 -4.335938 14.28125 -5.140625 C 15.175781 -5.953125 15.625 -6.960938 15.625 -8.171875 L 15.625 -10.59375 C 15.375 -10.425781 14.988281 -10.273438 14.46875 -10.140625 C 13.945312 -10.015625 13.390625 -9.90625 12.796875 -9.8125 C 12.210938 -9.71875 11.6875 -9.632812 11.21875 -9.5625 C 10.101562 -9.40625 9.207031 -9.09375 8.53125 -8.625 C 7.851562 -8.15625 7.515625 -7.476562 7.515625 -6.59375 C 7.515625 -5.71875 7.828125 -5.054688 8.453125 -4.609375 C 9.085938 -4.160156 9.890625 -3.9375 10.859375 -3.9375 Z M 10.859375 -3.9375 "/></g></g></g><g fill="#000000" fill-opacity="1"><g transform="translate(266.643998, 104.06185)"><g><path d="M 2.53125 0 L 2.53125 -22.84375 L 8.671875 -22.84375 L 8.671875 -18.859375 L 8.90625 -18.859375 C 9.320312 -20.273438 10.019531 -21.347656 11 -22.078125 C 11.976562 -22.804688 13.113281 -23.171875 14.40625 -23.171875 C 15.019531 -23.171875 15.585938 -23.097656 16.109375 -22.953125 C 16.640625 -22.804688 17.113281 -22.601562 17.53125 -22.34375 L 15.625 -17.109375 C 15.320312 -17.253906 14.992188 -17.378906 14.640625 -17.484375 C 14.296875 -17.585938 13.90625 -17.640625 13.46875 -17.640625 C 12.1875 -17.640625 11.097656 -17.203125 10.203125 -16.328125 C 9.316406 -15.460938 8.867188 -14.328125 8.859375 -12.921875 L 8.859375 0 Z M 2.53125 0 "/></g></g></g><g fill="#000000" fill-opacity="1"><g transform="translate(284.597349, 104.06185)"><g><path d="M 10.953125 0.375 C 9.210938 0.375 7.644531 -0.0703125 6.25 -0.96875 C 4.851562 -1.875 3.742188 -3.203125 2.921875 -4.953125 C 2.097656 -6.703125 1.6875 -8.847656 1.6875 -11.390625 C 1.6875 -14.015625 2.109375 -16.195312 2.953125 -17.9375 C 3.796875 -19.675781 4.921875 -20.976562 6.328125 -21.84375 C 7.734375 -22.707031 9.269531 -23.140625 10.9375 -23.140625 C 12.21875 -23.140625 13.285156 -22.925781 14.140625 -22.5 C 14.992188 -22.070312 15.6875 -21.539062 16.21875 -20.90625 C 16.75 -20.269531 17.15625 -19.640625 17.4375 -19.015625 L 17.625 -19.015625 L 17.625 -30.46875 L 23.953125 -30.46875 L 23.953125 0 L 17.703125 0 L 17.703125 -3.65625 L 17.4375 -3.65625 C 17.144531 -3.019531 16.722656 -2.390625 16.171875 -1.765625 C 15.628906 -1.148438 14.929688 -0.640625 14.078125 -0.234375 C 13.222656 0.171875 12.179688 0.375 10.953125 0.375 Z M 12.953125 -4.671875 C 14.484375 -4.671875 15.664062 -5.285156 16.5 -6.515625 C 17.34375 -7.753906 17.765625 -9.390625 17.765625 -11.421875 C 17.765625 -13.460938 17.347656 -15.085938 16.515625 -16.296875 C 15.679688 -17.503906 14.492188 -18.109375 12.953125 -18.109375 C 11.390625 -18.109375 10.195312 -17.488281 9.375 -16.25 C 8.5625 -15.019531 8.15625 -13.410156 8.15625 -11.421875 C 8.15625 -9.429688 8.566406 -7.804688 9.390625 -6.546875 C 10.210938 -5.296875 11.398438 -4.671875 12.953125 -4.671875 Z M 12.953125 -4.671875 "/></g></g></g></svg>