<svg xmlns="http://www.w3.org/2000/svg" xmlns:xlink="http://www.w3.org/1999/xlink" width="500" zoomAndPan="magnify" viewBox="0 0 375 374.999991" height="500" preserveAspectRatio="xMidYMid meet" version="1.0"><defs><g/><clipPath id="88e0f8bcf6"><path d="M 119.230469 85.554688 L 255.730469 85.554688 L 255.730469 265.554688 L 119.230469 265.554688 Z M 119.230469 85.554688 " clip-rule="nonzero"/></clipPath><clipPath id="587fa1656f"><path d="M 137.667969 139 L 237.417969 139 L 237.417969 204.199219 L 137.667969 204.199219 Z M 137.667969 139 " clip-rule="nonzero"/></clipPath></defs><rect x="-37.5" width="450" fill="#ffffff" y="-37.499999" height="449.999989" fill-opacity="1"/><rect x="-37.5" width="450" fill="#ffffff" y="-37.499999" height="449.999989" fill-opacity="1"/><g clip-path="url(#88e0f8bcf6)"><path fill="#004aad" d="M 255.410156 132.460938 C 255.332031 126.527344 255.101562 121.628906 254.871094 118.277344 C 254.832031 117.429688 254.097656 116.734375 253.25 116.734375 C 248.820312 116.621094 244.773438 114.847656 241.6875 112.035156 C 238.605469 109.179688 236.484375 105.289062 235.867188 100.894531 L 235.828125 100.742188 C 235.636719 99.929688 235.519531 99.042969 235.484375 98.121094 C 235.40625 97.234375 234.671875 96.539062 233.75 96.578125 C 232.9375 96.617188 232.089844 96.65625 231.320312 96.65625 C 229.507812 96.65625 226.886719 96.039062 223.804688 94.996094 C 219.179688 93.496094 213.511719 91.144531 207.308594 89.175781 C 201.101562 87.171875 194.359375 85.554688 187.496094 85.554688 C 178.363281 85.554688 169.382812 88.40625 161.671875 91.183594 C 157.820312 92.570312 154.273438 93.957031 151.1875 94.957031 C 148.105469 95.960938 145.484375 96.617188 143.671875 96.617188 C 142.863281 96.617188 142.054688 96.578125 141.246094 96.539062 C 140.359375 96.5 139.589844 97.195312 139.511719 98.082031 C 139.433594 99.007812 139.355469 99.890625 139.164062 100.703125 L 139.125 100.855469 C 138.507812 105.25 136.390625 109.179688 133.304688 111.996094 C 130.222656 114.847656 126.175781 116.582031 121.742188 116.695312 C 120.894531 116.734375 120.199219 117.390625 120.125 118.238281 C 119.890625 121.59375 119.660156 126.488281 119.585938 132.421875 C 119.46875 140.402344 119.277344 148.535156 119.277344 156.628906 C 119.277344 174.28125 120.164062 191.738281 124.941406 207.15625 C 127.332031 214.867188 130.683594 222.035156 135.425781 228.433594 C 140.128906 234.832031 146.21875 240.417969 153.964844 244.890625 C 166.605469 252.214844 174.777344 257.1875 179.75 260.347656 C 182.253906 261.925781 183.949219 263.042969 185.03125 263.777344 C 185.570312 264.125 185.957031 264.394531 186.1875 264.546875 C 186.300781 264.625 186.378906 264.703125 186.457031 264.742188 L 186.535156 264.777344 C 187.113281 265.203125 187.921875 265.203125 188.5 264.777344 C 188.882812 264.507812 196.515625 259.074219 221.027344 244.890625 C 228.777344 240.417969 234.867188 234.832031 239.566406 228.433594 C 246.660156 218.835938 250.667969 207.464844 252.941406 195.210938 C 255.214844 182.953125 255.71875 169.808594 255.71875 156.589844 C 255.71875 148.535156 255.523438 140.402344 255.410156 132.460938 Z M 246.890625 206.15625 C 244.578125 213.59375 241.378906 220.417969 236.910156 226.46875 C 232.4375 232.519531 226.734375 237.761719 219.371094 242 C 198.984375 253.792969 190.195312 259.574219 187.496094 261.386719 C 184.796875 259.535156 176.011719 253.753906 155.621094 242 C 148.261719 237.722656 142.554688 232.480469 138.085938 226.46875 C 131.378906 217.410156 127.523438 206.539062 125.328125 194.628906 C 123.128906 182.722656 122.628906 169.769531 122.628906 156.628906 C 122.628906 148.609375 122.820312 140.476562 122.9375 132.5 C 123.015625 127.410156 123.207031 123.132812 123.398438 119.933594 C 128.023438 119.472656 132.226562 117.46875 135.539062 114.460938 C 139.164062 111.109375 141.667969 106.558594 142.402344 101.355469 C 142.515625 100.894531 142.59375 100.394531 142.671875 99.890625 C 143.019531 99.890625 143.328125 99.890625 143.671875 99.890625 C 146.179688 99.890625 149.03125 99.121094 152.230469 98.082031 C 157.046875 96.5 162.675781 94.1875 168.6875 92.261719 C 174.738281 90.332031 181.175781 88.832031 187.496094 88.832031 C 195.9375 88.832031 204.570312 91.488281 212.203125 94.265625 C 216.019531 95.652344 219.566406 97 222.800781 98.082031 C 226 99.121094 228.851562 99.890625 231.359375 99.890625 C 231.707031 99.890625 232.050781 99.890625 232.359375 99.890625 C 232.4375 100.394531 232.515625 100.855469 232.628906 101.355469 C 233.363281 106.523438 235.867188 111.109375 239.492188 114.460938 C 242.765625 117.46875 247.007812 119.472656 251.671875 119.933594 C 251.863281 123.132812 252.054688 127.410156 252.132812 132.5 C 252.25 140.476562 252.441406 148.570312 252.441406 156.628906 C 252.402344 174.125 251.476562 191.316406 246.890625 206.15625 Z M 246.890625 206.15625 " fill-opacity="1" fill-rule="nonzero"/></g><g clip-path="url(#587fa1656f)"><path fill="#004aad" d="M 231.613281 139.121094 L 143.292969 139.121094 C 142.921875 139.121094 142.550781 139.160156 142.1875 139.230469 C 141.824219 139.304688 141.46875 139.414062 141.125 139.554688 C 140.785156 139.699219 140.457031 139.871094 140.148438 140.078125 C 139.839844 140.285156 139.554688 140.519531 139.289062 140.78125 C 139.027344 141.046875 138.792969 141.332031 138.585938 141.640625 C 138.378906 141.949219 138.207031 142.273438 138.0625 142.617188 C 137.921875 142.960938 137.8125 143.316406 137.742188 143.679688 C 137.667969 144.042969 137.632812 144.410156 137.632812 144.785156 L 137.632812 198.617188 C 137.632812 198.988281 137.667969 199.355469 137.742188 199.71875 C 137.8125 200.085938 137.921875 200.4375 138.0625 200.78125 C 138.207031 201.125 138.378906 201.449219 138.585938 201.761719 C 138.792969 202.070312 139.027344 202.355469 139.289062 202.617188 C 139.554688 202.878906 139.839844 203.113281 140.148438 203.320312 C 140.457031 203.527344 140.785156 203.703125 141.125 203.84375 C 141.46875 203.988281 141.824219 204.09375 142.1875 204.167969 C 142.550781 204.238281 142.921875 204.277344 143.292969 204.277344 L 231.613281 204.277344 C 231.984375 204.277344 232.355469 204.238281 232.71875 204.167969 C 233.082031 204.09375 233.4375 203.988281 233.78125 203.84375 C 234.121094 203.703125 234.449219 203.527344 234.757812 203.320312 C 235.066406 203.113281 235.351562 202.878906 235.617188 202.617188 C 235.878906 202.355469 236.113281 202.070312 236.320312 201.761719 C 236.527344 201.449219 236.699219 201.125 236.84375 200.78125 C 236.984375 200.4375 237.09375 200.085938 237.164062 199.71875 C 237.238281 199.355469 237.273438 198.988281 237.277344 198.617188 L 237.277344 144.785156 C 237.273438 144.410156 237.238281 144.042969 237.164062 143.679688 C 237.09375 143.316406 236.984375 142.960938 236.84375 142.617188 C 236.699219 142.273438 236.527344 141.949219 236.320312 141.640625 C 236.113281 141.332031 235.878906 141.042969 235.617188 140.78125 C 235.351562 140.519531 235.066406 140.285156 234.757812 140.078125 C 234.449219 139.871094 234.121094 139.695312 233.78125 139.554688 C 233.4375 139.414062 233.082031 139.304688 232.71875 139.230469 C 232.355469 139.160156 231.984375 139.121094 231.613281 139.121094 Z M 203.113281 171.699219 L 234.207031 143.980469 C 234.292969 144.242188 234.339844 144.507812 234.34375 144.785156 L 234.34375 198.617188 C 234.339844 198.890625 234.292969 199.15625 234.207031 199.417969 Z M 231.609375 142.054688 C 231.714844 142.058594 231.816406 142.070312 231.921875 142.085938 L 189.257812 180.113281 C 189.007812 180.335938 188.726562 180.507812 188.417969 180.625 C 188.105469 180.746094 187.78125 180.804688 187.445312 180.804688 C 187.113281 180.804688 186.789062 180.746094 186.476562 180.625 C 186.164062 180.507812 185.882812 180.335938 185.632812 180.113281 L 142.984375 142.085938 C 143.085938 142.070312 143.1875 142.058594 143.292969 142.054688 Z M 140.699219 199.417969 C 140.613281 199.15625 140.566406 198.890625 140.566406 198.617188 L 140.566406 144.785156 C 140.566406 144.507812 140.613281 144.242188 140.699219 143.980469 L 171.792969 171.699219 Z M 143.292969 201.347656 C 143.1875 201.339844 143.085938 201.332031 142.984375 201.316406 L 173.996094 173.667969 L 183.6875 182.304688 C 183.945312 182.53125 184.222656 182.738281 184.515625 182.914062 C 184.808594 183.09375 185.117188 183.246094 185.4375 183.367188 C 185.761719 183.492188 186.089844 183.582031 186.429688 183.644531 C 186.769531 183.707031 187.109375 183.738281 187.453125 183.738281 C 187.796875 183.738281 188.140625 183.707031 188.476562 183.644531 C 188.816406 183.582031 189.144531 183.492188 189.46875 183.367188 C 189.789062 183.246094 190.097656 183.09375 190.390625 182.914062 C 190.683594 182.738281 190.960938 182.53125 191.21875 182.304688 L 200.910156 173.664062 L 231.921875 201.3125 C 231.820312 201.328125 231.714844 201.339844 231.613281 201.34375 Z M 143.292969 201.347656 " fill-opacity="1" fill-rule="nonzero"/></g><g fill="#000000" fill-opacity="1"><g transform="translate(68.64528, 248.656829)"><g><path d="M 1.6875 2.140625 L 26.203125 -17.21875 L 39.25 -0.71875 L 34.96875 2.65625 L 26 -8.671875 L 20.15625 -4.0625 L 28.453125 6.421875 L 24.1875 9.796875 L 15.890625 -0.6875 L 10.046875 3.9375 L 19.046875 15.328125 L 14.765625 18.703125 Z M 1.6875 2.140625 "/></g></g></g><g fill="#000000" fill-opacity="1"><g transform="translate(87.27603, 272.721757)"><g><path d="M 2.078125 1.546875 L 16.109375 -17.203125 L 21.0625 -13.484375 L 18.59375 -10.1875 L 18.8125 -10.03125 C 20.039062 -10.832031 21.34375 -11.207031 22.71875 -11.15625 C 24.101562 -11.101562 25.429688 -10.601562 26.703125 -9.65625 C 27.984375 -8.695312 28.835938 -7.5625 29.265625 -6.25 C 29.691406 -4.9375 29.648438 -3.617188 29.140625 -2.296875 L 29.328125 -2.15625 C 30.515625 -2.945312 31.851562 -3.285156 33.34375 -3.171875 C 34.832031 -3.066406 36.265625 -2.5 37.640625 -1.46875 C 39.390625 -0.164062 40.394531 1.453125 40.65625 3.390625 C 40.925781 5.328125 40.300781 7.3125 38.78125 9.34375 L 29.34375 21.953125 L 24.140625 18.0625 L 32.8125 6.484375 C 33.59375 5.441406 33.898438 4.453125 33.734375 3.515625 C 33.578125 2.578125 33.085938 1.796875 32.265625 1.171875 C 31.304688 0.460938 30.335938 0.210938 29.359375 0.421875 C 28.378906 0.628906 27.53125 1.21875 26.8125 2.1875 L 18.234375 13.640625 L 13.1875 9.859375 L 21.9375 -1.84375 C 22.632812 -2.757812 22.921875 -3.6875 22.796875 -4.625 C 22.679688 -5.5625 22.195312 -6.347656 21.34375 -6.984375 C 20.476562 -7.628906 19.515625 -7.851562 18.453125 -7.65625 C 17.398438 -7.46875 16.484375 -6.851562 15.703125 -5.8125 L 7.28125 5.453125 Z M 2.078125 1.546875 "/></g></g></g><g fill="#000000" fill-opacity="1"><g transform="translate(122.524004, 297.352022)"><g><path d="M 8.421875 3.921875 C 6.347656 3.066406 4.847656 1.820312 3.921875 0.1875 C 3.003906 -1.445312 2.988281 -3.34375 3.875 -5.5 C 4.53125 -7.113281 5.425781 -8.222656 6.5625 -8.828125 C 7.695312 -9.441406 8.972656 -9.707031 10.390625 -9.625 C 11.804688 -9.550781 13.253906 -9.289062 14.734375 -8.84375 C 16.691406 -8.257812 18.117188 -7.90625 19.015625 -7.78125 C 19.910156 -7.65625 20.5 -7.9375 20.78125 -8.625 L 20.8125 -8.71875 C 21.1875 -9.613281 21.191406 -10.421875 20.828125 -11.140625 C 20.472656 -11.859375 19.78125 -12.425781 18.75 -12.84375 C 17.664062 -13.289062 16.707031 -13.410156 15.875 -13.203125 C 15.039062 -12.992188 14.375 -12.566406 13.875 -11.921875 L 8.484375 -14.65625 C 9.710938 -16.46875 11.382812 -17.613281 13.5 -18.09375 C 15.613281 -18.582031 17.96875 -18.296875 20.5625 -17.234375 C 22.175781 -16.578125 23.578125 -15.707031 24.765625 -14.625 C 25.960938 -13.550781 26.769531 -12.296875 27.1875 -10.859375 C 27.613281 -9.421875 27.476562 -7.84375 26.78125 -6.125 L 20.796875 8.5 L 15.09375 6.171875 L 16.328125 3.15625 L 16.15625 3.09375 C 15.207031 3.894531 14.078125 4.394531 12.765625 4.59375 C 11.460938 4.789062 10.015625 4.566406 8.421875 3.921875 Z M 11.84375 0.46875 C 13.15625 1 14.390625 1.054688 15.546875 0.640625 C 16.710938 0.222656 17.53125 -0.550781 18 -1.6875 L 18.9375 -3.984375 C 18.644531 -3.921875 18.222656 -3.925781 17.671875 -4 C 17.117188 -4.082031 16.546875 -4.195312 15.953125 -4.34375 C 15.359375 -4.488281 14.828125 -4.613281 14.359375 -4.71875 C 13.242188 -5 12.269531 -5.046875 11.4375 -4.859375 C 10.613281 -4.679688 10.023438 -4.171875 9.671875 -3.328125 C 9.335938 -2.503906 9.382812 -1.757812 9.8125 -1.09375 C 10.238281 -0.425781 10.914062 0.09375 11.84375 0.46875 Z M 11.84375 0.46875 "/></g></g></g><g fill="#000000" fill-opacity="1"><g transform="translate(147.830078, 307.011788)"><g><path d="M 2.515625 0.625 L 8.15625 -22.109375 L 14.46875 -20.546875 L 8.828125 2.1875 Z M 12.046875 -24.265625 C 11.117188 -24.492188 10.398438 -25.003906 9.890625 -25.796875 C 9.378906 -26.597656 9.234375 -27.4375 9.453125 -28.3125 C 9.671875 -29.1875 10.1875 -29.847656 11 -30.296875 C 11.820312 -30.753906 12.695312 -30.867188 13.625 -30.640625 C 14.5625 -30.398438 15.289062 -29.882812 15.8125 -29.09375 C 16.332031 -28.3125 16.484375 -27.484375 16.265625 -26.609375 C 16.046875 -25.734375 15.519531 -25.0625 14.6875 -24.59375 C 13.863281 -24.132812 12.984375 -24.023438 12.046875 -24.265625 Z M 12.046875 -24.265625 "/></g></g></g><g fill="#000000" fill-opacity="1"><g transform="translate(160.534808, 310.094019)"><g><path d="M 13.65625 -29.515625 L 8.984375 1.359375 L 2.5625 0.390625 L 7.234375 -30.484375 Z M 13.65625 -29.515625 "/></g></g></g><g fill="#000000" fill-opacity="1"><g transform="translate(173.370694, 311.943839)"><g/></g></g><g fill="#000000" fill-opacity="1"><g transform="translate(185.900388, 313.492396)"><g><path d="M 21.09375 -23.484375 C 20.519531 -24.898438 19.628906 -25.957031 18.421875 -26.65625 C 17.222656 -27.363281 15.78125 -27.628906 14.09375 -27.453125 C 11.707031 -27.203125 9.875 -26.117188 8.59375 -24.203125 C 7.3125 -22.296875 6.835938 -19.722656 7.171875 -16.484375 C 7.515625 -13.234375 8.5 -10.800781 10.125 -9.1875 C 11.757812 -7.570312 13.816406 -6.894531 16.296875 -7.15625 C 18.472656 -7.382812 20.128906 -8.132812 21.265625 -9.40625 C 22.398438 -10.675781 22.878906 -12.273438 22.703125 -14.203125 L 16.03125 -13.5 L 15.515625 -18.4375 L 28.515625 -19.8125 L 28.921875 -15.90625 C 29.210938 -13.175781 28.882812 -10.765625 27.9375 -8.671875 C 27 -6.585938 25.570312 -4.914062 23.65625 -3.65625 C 21.75 -2.394531 19.488281 -1.625 16.875 -1.34375 C 13.957031 -1.039062 11.328125 -1.414062 8.984375 -2.46875 C 6.648438 -3.53125 4.742188 -5.1875 3.265625 -7.4375 C 1.785156 -9.6875 0.875 -12.457031 0.53125 -15.75 C 0.175781 -19.101562 0.515625 -22.035156 1.546875 -24.546875 C 2.585938 -27.066406 4.132812 -29.078125 6.1875 -30.578125 C 8.25 -32.078125 10.644531 -32.96875 13.375 -33.25 C 15.71875 -33.5 17.882812 -33.273438 19.875 -32.578125 C 21.875 -31.890625 23.566406 -30.820312 24.953125 -29.375 C 26.335938 -27.925781 27.273438 -26.195312 27.765625 -24.1875 Z M 21.09375 -23.484375 "/></g></g></g><g fill="#000000" fill-opacity="1"><g transform="translate(221.869162, 308.930428)"><g><path d="M 13.28125 -15.265625 L 8.796875 -27.953125 L 14.921875 -30.125 L 22.734375 -8.046875 L 16.84375 -5.96875 L 15.421875 -9.96875 L 15.203125 -9.890625 C 15.160156 -8.429688 14.703125 -7.097656 13.828125 -5.890625 C 12.953125 -4.691406 11.6875 -3.800781 10.03125 -3.21875 C 7.800781 -2.425781 5.734375 -2.53125 3.828125 -3.53125 C 1.929688 -4.53125 0.519531 -6.316406 -0.40625 -8.890625 L -5.375 -22.9375 L 0.765625 -25.109375 L 5.34375 -12.15625 C 5.820312 -10.851562 6.535156 -9.941406 7.484375 -9.421875 C 8.441406 -8.910156 9.5 -8.863281 10.65625 -9.28125 C 11.757812 -9.664062 12.601562 -10.394531 13.1875 -11.46875 C 13.78125 -12.539062 13.8125 -13.804688 13.28125 -15.265625 Z M 13.28125 -15.265625 "/></g></g></g><g fill="#000000" fill-opacity="1"><g transform="translate(249.845004, 298.591138)"><g><path d="M 8.171875 -4.4375 C 6.253906 -3.28125 4.359375 -2.816406 2.484375 -3.046875 C 0.617188 -3.285156 -0.910156 -4.394531 -2.109375 -6.375 C -3.015625 -7.875 -3.375 -9.257812 -3.1875 -10.53125 C -3 -11.8125 -2.453125 -12.992188 -1.546875 -14.078125 C -0.648438 -15.171875 0.414062 -16.179688 1.65625 -17.109375 C 3.289062 -18.335938 4.425781 -19.269531 5.0625 -19.90625 C 5.695312 -20.550781 5.820312 -21.195312 5.4375 -21.84375 L 5.390625 -21.921875 C 4.878906 -22.753906 4.226562 -23.238281 3.4375 -23.375 C 2.65625 -23.507812 1.789062 -23.289062 0.84375 -22.71875 C -0.164062 -22.101562 -0.832031 -21.398438 -1.15625 -20.609375 C -1.488281 -19.816406 -1.546875 -19.03125 -1.328125 -18.25 L -6.71875 -15.546875 C -7.445312 -17.609375 -7.375 -19.632812 -6.5 -21.625 C -5.632812 -23.613281 -4.003906 -25.332031 -1.609375 -26.78125 C -0.117188 -27.6875 1.414062 -28.296875 3 -28.609375 C 4.582031 -28.929688 6.070312 -28.835938 7.46875 -28.328125 C 8.875 -27.816406 10.0625 -26.757812 11.03125 -25.15625 L 19.21875 -11.65625 L 13.953125 -8.453125 L 12.265625 -11.234375 L 12.09375 -11.140625 C 12.175781 -9.910156 11.910156 -8.707031 11.296875 -7.53125 C 10.679688 -6.363281 9.640625 -5.332031 8.171875 -4.4375 Z M 7.4375 -9.234375 C 8.644531 -9.960938 9.421875 -10.914062 9.765625 -12.09375 C 10.117188 -13.28125 9.976562 -14.398438 9.34375 -15.453125 L 8.0625 -17.578125 C 7.9375 -17.304688 7.675781 -16.972656 7.28125 -16.578125 C 6.894531 -16.191406 6.46875 -15.800781 6 -15.40625 C 5.539062 -15.007812 5.117188 -14.660156 4.734375 -14.359375 C 3.859375 -13.617188 3.242188 -12.863281 2.890625 -12.09375 C 2.546875 -11.332031 2.613281 -10.554688 3.09375 -9.765625 C 3.550781 -9.015625 4.175781 -8.609375 4.96875 -8.546875 C 5.757812 -8.484375 6.582031 -8.710938 7.4375 -9.234375 Z M 7.4375 -9.234375 "/></g></g></g><g fill="#000000" fill-opacity="1"><g transform="translate(273.102319, 283.898804)"><g><path d="M 1.953125 -1.703125 L -13.4375 -19.359375 L -8.6875 -23.5 L -6.015625 -20.421875 L -5.828125 -20.578125 C -6.453125 -21.953125 -6.628906 -23.25 -6.359375 -24.46875 C -6.097656 -25.695312 -5.472656 -26.742188 -4.484375 -27.609375 C -4.003906 -28.015625 -3.507812 -28.34375 -3 -28.59375 C -2.5 -28.84375 -2 -29.003906 -1.5 -29.078125 L 0.546875 -23.75 C 0.222656 -23.65625 -0.109375 -23.53125 -0.453125 -23.375 C -0.804688 -23.21875 -1.148438 -22.992188 -1.484375 -22.703125 C -2.472656 -21.847656 -3.015625 -20.78125 -3.109375 -19.5 C -3.210938 -18.226562 -2.789062 -17.046875 -1.84375 -15.953125 L 6.859375 -5.96875 Z M 1.953125 -1.703125 "/></g></g></g><g fill="#000000" fill-opacity="1"><g transform="translate(289.180322, 270.081534)"><g><path d="M 7.28125 -8.546875 C 6.175781 -7.160156 4.816406 -6.191406 3.203125 -5.640625 C 1.585938 -5.085938 -0.179688 -5.039062 -2.109375 -5.5 C -4.035156 -5.957031 -6.019531 -7 -8.0625 -8.625 C -10.15625 -10.289062 -11.628906 -12.019531 -12.484375 -13.8125 C -13.335938 -15.613281 -13.664062 -17.351562 -13.46875 -19.03125 C -13.269531 -20.707031 -12.640625 -22.21875 -11.578125 -23.5625 C -10.765625 -24.570312 -9.910156 -25.285156 -9.015625 -25.703125 C -8.128906 -26.117188 -7.257812 -26.335938 -6.40625 -26.359375 C -5.550781 -26.378906 -4.785156 -26.300781 -4.109375 -26.125 L -3.984375 -26.28125 L -13.171875 -33.59375 L -9.140625 -38.671875 L 15.296875 -19.21875 L 11.3125 -14.203125 L 8.375 -16.546875 L 8.203125 -16.328125 C 8.523438 -15.691406 8.757812 -14.953125 8.90625 -14.109375 C 9.050781 -13.273438 9.015625 -12.382812 8.796875 -11.4375 C 8.578125 -10.5 8.070312 -9.535156 7.28125 -8.546875 Z M 4.53125 -13.375 C 5.507812 -14.601562 5.769531 -15.945312 5.3125 -17.40625 C 4.851562 -18.875 3.804688 -20.253906 2.171875 -21.546875 C 0.535156 -22.847656 -1.023438 -23.550781 -2.515625 -23.65625 C -4.015625 -23.757812 -5.253906 -23.191406 -6.234375 -21.953125 C -7.234375 -20.691406 -7.5 -19.335938 -7.03125 -17.890625 C -6.570312 -16.453125 -5.550781 -15.097656 -3.96875 -13.828125 C -2.363281 -12.554688 -0.796875 -11.847656 0.734375 -11.703125 C 2.265625 -11.566406 3.53125 -12.125 4.53125 -13.375 Z M 4.53125 -13.375 "/></g></g></g></svg>